<svg width="74" height="34" viewBox="0 0 74 34" fill="none" xmlns="http://www.w3.org/2000/svg">
<rect width="74" height="34" rx="6" fill="#69B935"/>
<mask id="mask0_448_26338" style="mask-type:alpha" maskUnits="userSpaceOnUse" x="5" y="5" width="24" height="24">
<rect x="5" y="5" width="24" height="24" fill="#D9D9D9"/>
</mask>
<g mask="url(#mask0_448_26338)">
<path d="M16 24V18H10V16H16V10H18V16H24V18H18V24H16Z" fill="white"/>
</g>
<path d="M40.7821 22H42.7021L38.7181 10.864H36.6061L32.6221 22H34.5261L35.3261 19.728H39.9821L40.7821 22ZM39.4701 18.24H35.8381L37.6621 13.072L39.4701 18.24ZM43.8264 17.552C43.8264 20.272 45.6664 22.144 47.9864 22.144C49.4264 22.144 50.4824 21.472 51.0424 20.672V22H52.8824V10.16H51.0424V14.416C50.3704 13.584 49.1544 13.04 48.0024 13.04C45.6664 13.04 43.8264 14.832 43.8264 17.552ZM51.0424 17.584C51.0424 19.488 49.7464 20.56 48.3704 20.56C47.0104 20.56 45.6984 19.456 45.6984 17.552C45.6984 15.648 47.0104 14.624 48.3704 14.624C49.7464 14.624 51.0424 15.696 51.0424 17.584ZM54.6701 17.552C54.6701 20.272 56.5101 22.144 58.8301 22.144C60.2701 22.144 61.3261 21.472 61.8861 20.672V22H63.7261V10.16H61.8861V14.416C61.2141 13.584 59.9981 13.04 58.8461 13.04C56.5101 13.04 54.6701 14.832 54.6701 17.552ZM61.8861 17.584C61.8861 19.488 60.5901 20.56 59.2141 20.56C57.8541 20.56 56.5421 19.456 56.5421 17.552C56.5421 15.648 57.8541 14.624 59.2141 14.624C60.5901 14.624 61.8861 15.696 61.8861 17.584Z" fill="white"/>
</svg>
