<svg width="22" height="24" viewBox="0 0 22 24" fill="none" xmlns="http://www.w3.org/2000/svg">
<path d="M11 14.3333C10.6694 14.3333 10.3926 14.2213 10.1693 13.9973C9.94533 13.7741 9.83333 13.4972 9.83333 13.1667C9.83333 12.8361 9.94533 12.5588 10.1693 12.3348C10.3926 12.1116 10.6694 12 11 12C11.3306 12 11.6078 12.1116 11.8318 12.3348C12.0551 12.5588 12.1667 12.8361 12.1667 13.1667C12.1667 13.4972 12.0551 13.7741 11.8318 13.9973C11.6078 14.2213 11.3306 14.3333 11 14.3333ZM6.33333 14.3333C6.00278 14.3333 5.7255 14.2213 5.5015 13.9973C5.27828 13.7741 5.16667 13.4972 5.16667 13.1667C5.16667 12.8361 5.27828 12.5588 5.5015 12.3348C5.7255 12.1116 6.00278 12 6.33333 12C6.66389 12 6.94117 12.1116 7.16517 12.3348C7.38839 12.5588 7.5 12.8361 7.5 13.1667C7.5 13.4972 7.38839 13.7741 7.16517 13.9973C6.94117 14.2213 6.66389 14.3333 6.33333 14.3333ZM15.6667 14.3333C15.3361 14.3333 15.0592 14.2213 14.836 13.9973C14.612 13.7741 14.5 13.4972 14.5 13.1667C14.5 12.8361 14.612 12.5588 14.836 12.3348C15.0592 12.1116 15.3361 12 15.6667 12C15.9972 12 16.2741 12.1116 16.4973 12.3348C16.7213 12.5588 16.8333 12.8361 16.8333 13.1667C16.8333 13.4972 16.7213 13.7741 16.4973 13.9973C16.2741 14.2213 15.9972 14.3333 15.6667 14.3333ZM11 19C10.6694 19 10.3926 18.888 10.1693 18.664C9.94533 18.4408 9.83333 18.1639 9.83333 17.8333C9.83333 17.5028 9.94533 17.2259 10.1693 17.0027C10.3926 16.7787 10.6694 16.6667 11 16.6667C11.3306 16.6667 11.6078 16.7787 11.8318 17.0027C12.0551 17.2259 12.1667 17.5028 12.1667 17.8333C12.1667 18.1639 12.0551 18.4408 11.8318 18.664C11.6078 18.888 11.3306 19 11 19ZM6.33333 19C6.00278 19 5.7255 18.888 5.5015 18.664C5.27828 18.4408 5.16667 18.1639 5.16667 17.8333C5.16667 17.5028 5.27828 17.2259 5.5015 17.0027C5.7255 16.7787 6.00278 16.6667 6.33333 16.6667C6.66389 16.6667 6.94117 16.7787 7.16517 17.0027C7.38839 17.2259 7.5 17.5028 7.5 17.8333C7.5 18.1639 7.38839 18.4408 7.16517 18.664C6.94117 18.888 6.66389 19 6.33333 19ZM15.6667 19C15.3361 19 15.0592 18.888 14.836 18.664C14.612 18.4408 14.5 18.1639 14.5 17.8333C14.5 17.5028 14.612 17.2259 14.836 17.0027C15.0592 16.7787 15.3361 16.6667 15.6667 16.6667C15.9972 16.6667 16.2741 16.7787 16.4973 17.0027C16.7213 17.2259 16.8333 17.5028 16.8333 17.8333C16.8333 18.1639 16.7213 18.4408 16.4973 18.664C16.2741 18.888 15.9972 19 15.6667 19ZM2.83333 23.6667C2.19167 23.6667 1.64217 23.4384 1.18483 22.9818C0.728278 22.5245 0.5 21.975 0.5 21.3333V5.00001C0.5 4.35834 0.728278 3.80923 1.18483 3.35268C1.64217 2.89534 2.19167 2.66668 2.83333 2.66668H4V0.333344H6.33333V2.66668H15.6667V0.333344H18V2.66668H19.1667C19.8083 2.66668 20.3578 2.89534 20.8152 3.35268C21.2717 3.80923 21.5 4.35834 21.5 5.00001V21.3333C21.5 21.975 21.2717 22.5245 20.8152 22.9818C20.3578 23.4384 19.8083 23.6667 19.1667 23.6667H2.83333ZM2.83333 21.3333H19.1667V9.66668H2.83333V21.3333Z" fill="#9997FC"/>
</svg>
