<svg width="28" height="28" viewBox="0 0 28 28" fill="none" xmlns="http://www.w3.org/2000/svg">
<mask id="mask0_175_8076" style="mask-type:alpha" maskUnits="userSpaceOnUse" x="0" y="0" width="28" height="28">
<rect width="28" height="28" fill="#9997FC"/>
</mask>
<g mask="url(#mask0_175_8076)">
<path d="M7 22.1667V23.3333C7 23.6639 6.88839 23.9408 6.66517 24.164C6.44117 24.388 6.16389 24.5 5.83333 24.5H4.66667C4.33611 24.5 4.05922 24.388 3.836 24.164C3.612 23.9408 3.5 23.6639 3.5 23.3333V14L5.95 7.00001C6.06667 6.65001 6.27589 6.36807 6.57767 6.15418C6.87867 5.94029 7.21389 5.83334 7.58333 5.83334H20.4167C20.7861 5.83334 21.1217 5.94029 21.4235 6.15418C21.7245 6.36807 21.9333 6.65001 22.05 7.00001L24.5 14V23.3333C24.5 23.6639 24.388 23.9408 24.164 24.164C23.9408 24.388 23.6639 24.5 23.3333 24.5H22.1667C21.8361 24.5 21.5592 24.388 21.336 24.164C21.112 23.9408 21 23.6639 21 23.3333V22.1667H7ZM6.76667 11.6667H21.2333L20.0083 8.16668H7.99167L6.76667 11.6667ZM8.75 18.6667C9.23611 18.6667 9.64911 18.4963 9.989 18.1557C10.3297 17.8158 10.5 17.4028 10.5 16.9167C10.5 16.4306 10.3297 16.0176 9.989 15.6777C9.64911 15.337 9.23611 15.1667 8.75 15.1667C8.26389 15.1667 7.85089 15.337 7.511 15.6777C7.17033 16.0176 7 16.4306 7 16.9167C7 17.4028 7.17033 17.8158 7.511 18.1557C7.85089 18.4963 8.26389 18.6667 8.75 18.6667ZM19.25 18.6667C19.7361 18.6667 20.1491 18.4963 20.489 18.1557C20.8297 17.8158 21 17.4028 21 16.9167C21 16.4306 20.8297 16.0176 20.489 15.6777C20.1491 15.337 19.7361 15.1667 19.25 15.1667C18.7639 15.1667 18.3509 15.337 18.011 15.6777C17.6703 16.0176 17.5 16.4306 17.5 16.9167C17.5 17.4028 17.6703 17.8158 18.011 18.1557C18.3509 18.4963 18.7639 18.6667 19.25 18.6667Z" fill="#9997FC"/>
</g>
</svg>
