<svg width="19" height="13" viewBox="0 0 19 13" fill="none" xmlns="http://www.w3.org/2000/svg">
<path fill-rule="evenodd" clip-rule="evenodd" d="M0.92865 1.07014C0.860812 1.12339 0.775197 1.21492 0.738333 1.27352C0.701511 1.33213 0.661667 1.38403 0.649761 1.38888C0.629898 1.39697 0.505888 1.69988 0.470215 1.82745C0.461799 1.85751 0.455408 1.97909 0.456013 2.0976C0.456618 2.21612 0.449789 2.36466 0.440848 2.42768C0.431877 2.49071 0.43219 2.56112 0.441496 2.58414C0.450803 2.60716 0.452506 2.70429 0.445293 2.79993C0.438092 2.89561 0.43681 3.03612 0.442436 3.11222C0.448104 3.18832 0.44708 3.26097 0.440224 3.27366C0.433367 3.28635 0.432396 3.38391 0.438112 3.49045C0.443798 3.597 0.442771 3.7617 0.435844 3.85648C0.428887 3.95126 0.430117 4.04573 0.438542 4.06641C0.446967 4.0871 0.447936 4.16534 0.440672 4.24027C0.433408 4.31521 0.431343 4.4559 0.436049 4.55295C0.440787 4.64999 0.438486 4.74 0.430926 4.75297C0.423396 4.76594 0.423247 4.87936 0.430615 5.00502C0.437982 5.13068 0.438214 5.25204 0.431173 5.2747C0.424132 5.29737 0.424364 5.41873 0.431732 5.54439C0.4391 5.67005 0.438247 5.78376 0.42986 5.79707C0.421474 5.81038 0.42062 5.92409 0.427988 6.04975C0.435356 6.17541 0.436383 6.29645 0.430292 6.31873C0.4242 6.341 0.424566 6.46638 0.431147 6.59729C0.437697 6.72821 0.43262 6.83961 0.419858 6.84481C0.407095 6.85001 0.404927 6.87464 0.415061 6.89952C0.432451 6.94221 0.433425 7.01232 0.421578 7.36832C0.418873 7.44989 0.420889 7.52702 0.426057 7.5397C0.431225 7.55239 0.432202 7.64808 0.428226 7.75237C0.414778 8.10593 0.416154 8.21618 0.434637 8.26155C0.444772 8.28643 0.440798 8.3118 0.42577 8.31793C0.410774 8.32403 0.404793 8.37102 0.412451 8.42232C0.420138 8.4736 0.422062 8.61454 0.41676 8.73546C0.411427 8.8564 0.415045 9.029 0.424793 9.11907C0.434572 9.20912 0.432887 9.28671 0.421104 9.29151C0.40932 9.29631 0.406878 9.4056 0.415651 9.53435C0.424424 9.66311 0.425089 9.82076 0.417108 9.88465C0.409128 9.94854 0.41101 10.0743 0.421248 10.1642C0.431516 10.254 0.430261 10.3314 0.418447 10.3363C0.406633 10.3411 0.402893 10.4276 0.410118 10.5286C0.417344 10.6295 0.416555 10.723 0.408413 10.7362C0.400241 10.7494 0.396666 10.7914 0.400489 10.8294C0.413925 10.9642 0.421854 11.2182 0.416499 11.3421C0.405067 11.6049 0.716034 12.0653 1.01682 12.231C1.28193 12.3771 1.67417 12.4471 2.04626 12.4148C2.12684 12.4078 2.1965 12.4113 2.20108 12.4226C2.20567 12.4338 2.29496 12.4362 2.39951 12.4279C2.50405 12.4195 2.59325 12.4217 2.59771 12.4326C2.60216 12.4435 2.67881 12.4445 2.76806 12.4347C2.85733 12.4249 2.9832 12.4239 3.04786 12.4325C3.11252 12.4411 3.26609 12.4436 3.38911 12.438C3.51215 12.4325 3.6234 12.4342 3.63633 12.4418C3.64926 12.4495 3.72968 12.4498 3.81506 12.4426C3.95607 12.4306 4.18738 12.4336 4.58629 12.4524C4.66634 12.4562 4.80983 12.4544 4.90515 12.4483C5.00052 12.4423 5.08957 12.4441 5.10304 12.4523C5.11654 12.4605 5.21391 12.4623 5.31942 12.4563C5.42493 12.4503 5.54571 12.4512 5.5878 12.4581C5.62989 12.4651 5.76637 12.4654 5.89113 12.4589C6.01586 12.4523 6.12876 12.4535 6.142 12.4615C6.15521 12.4695 6.2526 12.4717 6.3584 12.4664C6.46418 12.4611 6.5853 12.4628 6.62751 12.47C6.66973 12.4773 6.7935 12.4757 6.90261 12.4664C7.0117 12.4572 7.1051 12.4598 7.11017 12.4723C7.11525 12.4847 7.22793 12.4857 7.36057 12.4745C7.49318 12.4633 7.61363 12.4629 7.62821 12.4737C7.64281 12.4844 7.75615 12.4867 7.88011 12.4789C8.00407 12.4711 8.11725 12.4733 8.13161 12.4839C8.14599 12.4945 8.24697 12.4956 8.35605 12.4864C8.46511 12.4772 8.56509 12.4763 8.5782 12.4844C8.59132 12.4925 8.70465 12.4948 8.83006 12.4895C8.95547 12.4842 9.09167 12.4868 9.1327 12.4954C9.17375 12.504 9.29406 12.5037 9.40008 12.4948C9.50609 12.4858 9.60317 12.4842 9.61584 12.4912C9.62849 12.4982 9.71801 12.5011 9.81474 12.4977C9.99261 12.4914 10.1954 12.4949 10.4617 12.509C10.5419 12.5132 10.7026 12.5134 10.8187 12.5094C10.9348 12.5054 11.0405 12.5085 11.0535 12.5164C11.0665 12.5242 11.1639 12.5233 11.2699 12.5143C11.3759 12.5054 11.4963 12.5053 11.5374 12.5142C11.5786 12.523 11.7222 12.5243 11.8566 12.5169C11.991 12.5096 12.1115 12.5098 12.1245 12.5174C12.1374 12.5251 12.226 12.5267 12.3214 12.5212C12.4168 12.5156 12.5135 12.5165 12.5363 12.5231C12.5591 12.5297 12.6727 12.5321 12.7887 12.5286C12.9048 12.525 13.0182 12.5274 13.0407 12.5339C13.0632 12.5404 13.1836 12.5401 13.3082 12.5332C13.4328 12.5262 13.5455 12.5271 13.5588 12.5351C13.572 12.5431 13.6694 12.5453 13.7752 12.54C13.881 12.5347 14.0019 12.5359 14.0439 12.5426C14.0859 12.5494 14.2066 12.55 14.3121 12.544C14.4176 12.538 14.5156 12.5403 14.5298 12.549C14.544 12.5577 14.6515 12.5576 14.7686 12.5488C14.8858 12.54 15.0216 12.5402 15.0706 12.5492C15.1195 12.5583 15.2487 12.5581 15.3579 12.5489C15.4669 12.5396 15.5603 12.5423 15.5654 12.5547C15.5705 12.5672 15.6832 12.5682 15.8158 12.557C15.9484 12.5458 16.0689 12.5454 16.0835 12.5562C16.0981 12.5669 16.192 12.5702 16.292 12.5635C16.3921 12.5568 16.5078 12.5588 16.549 12.568C16.5903 12.5772 16.7108 12.5773 16.8169 12.5684C16.9229 12.5595 17.0205 12.5592 17.0338 12.5678C17.0667 12.589 17.4897 12.559 17.5598 12.5304C17.5907 12.5179 17.6216 12.5214 17.6285 12.5384C17.6435 12.5753 17.8962 12.478 17.9231 12.425C17.9334 12.4046 18.0102 12.3388 18.0937 12.2787C18.3662 12.0827 18.5688 11.6441 18.5571 11.2751C18.5541 11.1792 18.5568 11.082 18.5631 11.0592C18.5694 11.0363 18.5692 10.9393 18.5626 10.8434C18.5561 10.7476 18.5534 10.6033 18.5567 10.5228C18.5731 10.1216 18.5746 9.88889 18.5619 9.74695C18.5543 9.66101 18.5542 9.58005 18.5618 9.56705C18.5695 9.55405 18.5711 9.44 18.5655 9.31362C18.56 9.18724 18.5614 9.03279 18.5688 8.97041C18.5762 8.90801 18.5738 8.78345 18.5636 8.69362C18.5533 8.60379 18.5534 8.52681 18.5639 8.52255C18.5743 8.51831 18.5774 8.42796 18.5709 8.32176C18.5643 8.21557 18.5699 8.12424 18.5832 8.1188C18.5966 8.11337 18.5992 8.08854 18.5891 8.06367C18.5717 8.0211 18.5702 7.95499 18.5784 7.59892C18.5803 7.51898 18.5786 7.37394 18.5746 7.27659C18.5706 7.17925 18.573 7.0892 18.5798 7.07651C18.5867 7.06381 18.5846 6.96613 18.575 6.85942C18.5655 6.7527 18.565 6.63146 18.5739 6.58997C18.5827 6.5485 18.5841 6.43214 18.5768 6.33142C18.5696 6.23069 18.5723 6.13631 18.5829 6.12166C18.5935 6.10705 18.5924 5.98599 18.5805 5.85265C18.5686 5.71931 18.5675 5.59829 18.578 5.58369C18.5886 5.56906 18.5903 5.45505 18.5818 5.33028C18.5733 5.20552 18.575 5.0915 18.5855 5.07687C18.5961 5.06227 18.595 4.94109 18.5831 4.8076C18.5712 4.67408 18.5715 4.56072 18.5839 4.55568C18.5962 4.55066 18.5988 4.457 18.5896 4.34757C18.5804 4.23813 18.5786 4.11334 18.5856 4.07027C18.5927 4.02717 18.5931 3.90505 18.5865 3.79886C18.5799 3.69267 18.5812 3.59471 18.5892 3.58118C18.5973 3.56767 18.5985 3.4781 18.592 3.38211C18.5854 3.28617 18.5827 3.1418 18.586 3.06129C18.6024 2.66006 18.604 2.42736 18.5912 2.28542C18.5836 2.19947 18.5876 2.11341 18.6002 2.09416C18.6133 2.0741 18.5732 1.93662 18.5063 1.77251C18.4153 1.54916 18.3709 1.47382 18.3049 1.43134C18.2584 1.40139 18.2126 1.35806 18.2032 1.33507C18.1664 1.24457 17.8029 1.05346 17.5785 1.00662C17.4499 0.979789 17.3303 0.963654 17.3128 0.970798C17.2953 0.977943 17.2008 0.977499 17.1028 0.969803C17.0048 0.962137 16.859 0.962288 16.7788 0.970128C16.6986 0.978011 16.6282 0.972743 16.6224 0.958452C16.6166 0.944161 16.5916 0.940692 16.567 0.950741C16.522 0.969068 16.4124 0.969801 16.0609 0.954179C15.9572 0.949562 15.8621 0.949979 15.8495 0.955103C15.8369 0.960227 15.7603 0.9618 15.6792 0.958596C15.3252 0.94457 15.2556 0.945134 15.2132 0.962378C15.1886 0.972427 15.1641 0.9701 15.1588 0.957229C15.1536 0.944357 15.0428 0.93859 14.9127 0.944406C14.7827 0.950252 14.658 0.94988 14.6359 0.943619C14.6137 0.937358 14.4934 0.937676 14.3685 0.944346C14.2437 0.951015 14.1306 0.949483 14.1173 0.940936C14.104 0.932419 14.0074 0.931697 13.9026 0.939349C13.7978 0.947032 13.6584 0.944701 13.593 0.934229C13.5275 0.923758 13.4569 0.922114 13.4361 0.930592C13.4152 0.939071 13.3207 0.939653 13.226 0.931859C13.1312 0.924065 12.9681 0.92357 12.8635 0.930775C12.7589 0.937982 12.6535 0.938125 12.6293 0.931061C12.6051 0.92401 12.5169 0.921325 12.4333 0.925097C12.3496 0.928868 12.2145 0.928785 12.1329 0.924903C12.0514 0.921051 11.9129 0.919026 11.8251 0.920438C11.6524 0.923215 11.5772 0.921481 11.2037 0.906212C11.0689 0.900693 10.9414 0.903106 10.9204 0.911597C10.8994 0.920088 10.8303 0.91842 10.7669 0.907905C10.7035 0.897359 10.566 0.894223 10.4614 0.900879C10.3568 0.907535 10.1965 0.907649 10.1051 0.901111C10.0137 0.894573 9.86591 0.897098 9.77659 0.906743C9.68731 0.916376 9.6101 0.914142 9.60505 0.901734C9.59999 0.889325 9.5103 0.885953 9.40572 0.894222C9.30115 0.902522 9.21097 0.897945 9.20531 0.884055C9.19967 0.870196 9.17484 0.867067 9.15017 0.877117C9.10582 0.895182 9.00487 0.896071 8.65113 0.881433C8.5513 0.877292 8.40395 0.880242 8.3237 0.887958C8.24343 0.895644 8.17299 0.890296 8.16717 0.876005C8.16135 0.861713 8.13638 0.858244 8.11171 0.868293C8.06813 0.886047 7.95318 0.887422 7.64495 0.87389C7.56284 0.870306 7.48595 0.871291 7.47413 0.876104C7.46229 0.880929 7.36776 0.881109 7.26407 0.876492C6.91256 0.86087 6.80299 0.861603 6.75799 0.87993C6.73333 0.88998 6.7085 0.88685 6.70285 0.872991C6.6972 0.859101 6.60328 0.85518 6.49411 0.864275C6.38495 0.87337 6.24447 0.87341 6.18193 0.864412C6.11937 0.855383 5.97913 0.85601 5.87025 0.865815C5.76138 0.87562 5.66823 0.873581 5.66323 0.861296C5.65821 0.848981 5.56661 0.845844 5.45969 0.854313C5.35273 0.862794 5.21143 0.860796 5.14563 0.84985C5.07984 0.838935 5.0081 0.837244 4.98622 0.846085C4.96435 0.854925 4.87691 0.857109 4.79194 0.850951C4.70695 0.844762 4.54306 0.844622 4.42773 0.850579C4.31239 0.856536 4.19963 0.856085 4.1771 0.849572C4.15457 0.843059 4.04118 0.840664 3.92513 0.844249C3.80908 0.847835 3.69545 0.84536 3.67264 0.83878C3.64986 0.832157 3.55316 0.831312 3.45776 0.836886C3.36239 0.842447 3.27383 0.840881 3.26099 0.833445C3.24814 0.826009 3.15101 0.824084 3.04515 0.829205C2.93927 0.834295 2.77556 0.832287 2.68131 0.824758C2.58706 0.817197 2.49127 0.818574 2.46844 0.827801C2.44562 0.837028 2.37559 0.836834 2.31283 0.827312C2.25009 0.81782 2.08877 0.816022 1.95435 0.823311C1.81994 0.8306 1.67142 0.829307 1.62433 0.820386C1.50563 0.797949 1.08128 0.950306 0.92865 1.07014ZM2.05021 2.85507C2.13665 2.85081 2.22571 2.85264 2.24811 2.8591C2.27053 2.86559 2.37625 2.86854 2.48304 2.86571C2.58982 2.86284 2.73456 2.86337 2.80467 2.86684C3.29985 2.89141 3.30886 2.89889 3.42421 3.38187C3.47041 3.57517 3.50784 3.76584 3.50744 3.8056C3.50704 3.84535 3.5313 3.98121 3.56135 4.10753C3.59139 4.23384 3.62365 4.37689 3.63298 4.42546C3.64572 4.49167 3.7292 4.31817 3.9668 3.73165C4.14104 3.3015 4.30715 2.93463 4.33591 2.91633C4.38959 2.88219 4.4783 2.87649 4.7934 2.88701C4.89289 2.89032 5.00176 2.89145 5.03533 2.88958C5.13921 2.88372 5.15044 3.00003 5.06161 3.16146C5.01518 3.2458 4.81175 3.71018 4.60952 4.19337C4.40729 4.67655 4.23085 5.0765 4.21742 5.08208C4.20398 5.0877 4.15053 5.19854 4.09866 5.3284C4.04677 5.45829 3.98815 5.57114 3.96834 5.5792C3.94854 5.58727 3.87364 5.58745 3.80183 5.57963C3.73006 5.5718 3.58025 5.57258 3.46891 5.58141C3.35756 5.59024 3.25068 5.58052 3.23137 5.55981C3.18521 5.51027 2.72826 3.99 2.74329 3.9359C2.74968 3.91293 2.70772 3.75116 2.65009 3.57641L2.54526 3.25873L2.20154 3.12696C1.88464 3.00551 1.75925 2.91548 1.85463 2.87796C1.87578 2.86963 1.96377 2.85934 2.05021 2.85507ZM5.5893 2.88661C5.67221 2.88252 5.77795 2.88587 5.82428 2.89403C5.87063 2.90217 5.95004 2.90229 6.00073 2.89427C6.12674 2.87432 6.15319 2.95737 6.09681 3.19583C6.07159 3.30255 6.05735 3.40556 6.06516 3.42473C6.07298 3.44392 6.06794 3.4643 6.05395 3.47C6.03996 3.47569 6.02495 3.52636 6.02061 3.58254C6.01624 3.63874 5.99804 3.7584 5.98015 3.84842C5.96223 3.93846 5.95307 4.02555 5.95973 4.04191C5.96641 4.0583 5.95101 4.11834 5.92548 4.17534C5.89999 4.23233 5.88456 4.29299 5.89119 4.31016C5.89786 4.32731 5.88294 4.42936 5.85806 4.53692C5.8332 4.64451 5.81717 4.74313 5.82246 4.75612C5.82774 4.76909 5.80176 4.92211 5.76472 5.09617C5.72768 5.27022 5.7025 5.42522 5.70876 5.44059C5.71502 5.45596 5.70623 5.49481 5.68926 5.52692C5.65518 5.59122 5.48899 5.6175 5.23773 5.59829C5.16683 5.59287 5.06491 5.58912 5.01129 5.58994C4.88258 5.59196 4.86291 5.52957 4.91978 5.29958C4.94572 5.19465 4.96203 5.09671 4.95602 5.08195C4.95001 5.0672 4.96543 4.96709 4.99031 4.85954C5.01518 4.75195 5.02803 4.64555 5.01888 4.62308C5.00973 4.60061 5.01573 4.57672 5.03223 4.56999C5.04869 4.56329 5.06795 4.4866 5.07501 4.39961C5.08205 4.31264 5.10125 4.18739 5.11766 4.12132C5.1341 4.05525 5.14612 3.97341 5.1444 3.93949C5.14268 3.90557 5.15453 3.87238 5.17075 3.86577C5.18697 3.85917 5.19695 3.81868 5.1929 3.77578C5.18884 3.73288 5.19932 3.6436 5.21622 3.57734C5.23309 3.51108 5.25186 3.39817 5.25789 3.32644C5.27519 3.12081 5.33383 2.93558 5.38848 2.91389C5.41604 2.90296 5.50641 2.89065 5.5893 2.88661ZM7.33634 2.87007C7.35107 2.87994 7.43794 2.87928 7.52933 2.86861C7.62076 2.85792 7.78119 2.86832 7.8858 2.89167C7.99046 2.91504 8.08868 2.92901 8.10414 2.92272C8.13912 2.90847 8.20047 2.97251 8.23644 3.06082C8.25145 3.09767 8.2434 3.21587 8.21852 3.32342C8.19365 3.43101 8.18079 3.53741 8.18995 3.55988C8.2111 3.6118 8.07042 3.67144 8.02968 3.62783C7.97262 3.56679 7.55804 3.49646 7.40978 3.52267C7.24047 3.5526 7.14983 3.63458 7.18649 3.72458C7.19912 3.75557 7.29023 3.82156 7.389 3.8713C7.48776 3.921 7.57472 3.97681 7.58224 3.99527C7.58976 4.01372 7.63129 4.03481 7.67456 4.04212C7.88868 4.07826 8.14304 4.50879 8.13823 4.82705C8.13562 5.00006 8.04308 5.1937 7.91969 5.28431C7.878 5.31493 7.84135 5.35541 7.83826 5.37427C7.83094 5.41867 7.22759 5.66504 7.21313 5.62954C7.2071 5.61472 7.14326 5.61622 7.07127 5.63284C6.92274 5.66715 6.47797 5.63363 6.25256 5.5711C6.15659 5.54452 6.09138 5.50385 6.07325 5.45935C6.04433 5.38835 6.0486 5.20664 6.08043 5.15426C6.09002 5.13848 6.10204 5.07539 6.10718 5.01406C6.12087 4.85031 6.1883 4.82925 6.42384 4.91515C6.67599 5.00713 6.91913 5.02821 7.10986 4.97466C7.40127 4.89287 7.36168 4.73244 7.00539 4.55124C6.70973 4.4009 6.43794 4.16462 6.37067 3.99949C6.28392 3.78654 6.36244 3.41882 6.52644 3.27014C6.57387 3.22714 6.6085 3.18172 6.60341 3.16922C6.58053 3.11307 7.27564 2.82933 7.33634 2.87007ZM9.65653 2.92908C9.72688 2.93972 9.84182 2.94461 9.91192 2.94002C9.98245 2.9354 10.0478 2.95209 10.0581 2.97737C10.0972 3.07351 10.1933 3.49652 10.1917 3.56584C10.1907 3.6058 10.2483 3.86576 10.3196 4.14351C10.3909 4.42127 10.4467 4.67416 10.4437 4.7055C10.4406 4.73684 10.4852 4.95111 10.5428 5.18166L10.6475 5.60084L10.5214 5.63337C10.452 5.65124 10.3122 5.65795 10.2107 5.64827C10.1091 5.63856 10.0051 5.63919 9.97945 5.64965C9.94119 5.66523 9.92052 5.63201 9.86439 5.46479L9.79598 5.26093L9.61155 5.25005C9.51016 5.24406 9.36107 5.24452 9.28034 5.25106C9.19961 5.2576 9.12943 5.2529 9.12444 5.24065C9.11943 5.22836 9.07767 5.2258 9.03165 5.23494C8.96993 5.24723 8.94597 5.27243 8.94039 5.33092C8.92784 5.46278 8.84704 5.60712 8.76762 5.63947C8.72642 5.65625 8.68749 5.65722 8.68113 5.6416C8.67478 5.62601 8.58763 5.61908 8.48751 5.62622C8.19611 5.64697 8.07066 5.63221 8.04712 5.57443C8.02842 5.52853 8.53136 4.33271 8.98697 3.33974L9.12587 3.03703L9.32725 2.97339C9.44543 2.93604 9.58146 2.91773 9.65653 2.92908ZM9.41305 4.09133C9.37187 4.19296 9.34465 4.29204 9.35256 4.31146C9.36047 4.33087 9.33771 4.39326 9.30198 4.4501C9.21611 4.58672 9.23946 4.62809 9.39808 4.6203C9.68734 4.60611 9.67798 4.6159 9.62655 4.38129C9.60094 4.26454 9.56807 4.1397 9.55348 4.1039C9.5389 4.06809 9.53724 4.02461 9.5498 4.00726C9.57683 3.9699 9.54708 3.88241 9.51216 3.89663C9.49884 3.90206 9.45425 3.98968 9.41305 4.09133ZM13.8959 2.32447C14.0441 2.30415 14.2547 2.29958 14.285 2.316C14.2976 2.32285 14.3702 2.32369 14.4463 2.31786C14.5224 2.31204 14.6662 2.31031 14.7659 2.31405C15.133 2.32776 15.2208 2.32687 15.2646 2.309C15.2893 2.29895 15.3141 2.30208 15.3198 2.31593C15.3255 2.32982 15.4156 2.3344 15.5202 2.3261C15.6248 2.31783 15.7145 2.3212 15.7195 2.33361C15.7246 2.34602 15.8019 2.34856 15.8913 2.33927C16.0307 2.32482 16.3363 2.32779 16.5989 2.34613C16.7347 2.35561 16.9319 2.44598 17.0092 2.5341C17.1353 2.67805 17.2421 2.97987 17.2265 3.14866C17.219 3.23012 17.2194 3.38637 17.2273 3.49585C17.2353 3.60531 17.2349 3.73502 17.2265 3.78407C17.2181 3.83313 17.2176 3.95548 17.2254 4.05599C17.2332 4.15651 17.2309 4.25072 17.2203 4.26536C17.2097 4.27997 17.2108 4.4012 17.2227 4.53469C17.2346 4.6682 17.2351 4.78122 17.2238 4.78585C17.2125 4.79046 17.2089 4.86014 17.2159 4.94067C17.2229 5.02117 17.2246 5.1703 17.2197 5.27204C17.2147 5.37375 17.2167 5.52336 17.2241 5.60448C17.2314 5.68559 17.2267 5.75637 17.2135 5.76172C17.2004 5.76708 17.1906 5.80949 17.1918 5.85599C17.1954 5.99354 16.9748 6.21885 16.7447 6.3126C16.6364 6.35669 16.5462 6.37765 16.5391 6.36034C16.5322 6.34336 16.5064 6.3377 16.4817 6.34775C16.4394 6.36499 16.366 6.3662 16.0197 6.3554C15.9402 6.35292 15.817 6.35539 15.7459 6.36095C15.6748 6.36648 15.6047 6.36217 15.59 6.35136C15.5753 6.3406 15.455 6.34091 15.3225 6.35212C15.19 6.36333 15.0698 6.3637 15.0552 6.35298C15.0406 6.34227 14.9272 6.33989 14.8033 6.34771C14.6793 6.35552 14.566 6.35315 14.5514 6.34243C14.5368 6.33171 14.4163 6.33212 14.2837 6.34331C14.1511 6.35452 14.0374 6.35097 14.031 6.33541C14.0247 6.31985 13.9914 6.31856 13.957 6.33258C13.8677 6.36894 13.4932 6.21447 13.3979 6.10193C13.2785 5.96119 13.1925 5.65077 13.2104 5.42587C13.2188 5.3206 13.2215 5.22412 13.2163 5.21146C13.2112 5.19881 13.2095 5.12088 13.2126 5.0383C13.2242 4.72827 13.2222 4.61261 13.2043 4.56866C13.1941 4.54378 13.1964 4.51912 13.2092 4.51387C13.2221 4.50862 13.2282 4.42112 13.2226 4.31947C13.2171 4.21783 13.2145 4.06908 13.2167 3.98898C13.2262 3.65396 13.2244 3.56686 13.2069 3.52392C13.1967 3.49905 13.1994 3.47422 13.2127 3.46879C13.2261 3.46335 13.2316 3.37202 13.225 3.26583C13.2185 3.15963 13.2247 3.06805 13.2387 3.06232C13.2528 3.05657 13.254 3.02641 13.2413 2.99529C13.2047 2.90541 13.3139 2.63683 13.4285 2.53488C13.5493 2.4274 13.7262 2.34773 13.8959 2.32447ZM2.19226 9.2365C2.27645 9.23233 2.41111 9.23272 2.49153 9.23742C2.81866 9.25646 3.05221 9.26334 3.07379 9.25455C3.08637 9.24943 3.16313 9.24814 3.24435 9.25165C3.32559 9.25519 3.46403 9.25735 3.55198 9.25643C3.63993 9.25551 3.79682 9.25882 3.90064 9.26375C4.00446 9.26867 4.09967 9.2685 4.11225 9.26338C4.12482 9.25825 4.20148 9.25668 4.28257 9.25989C4.6365 9.27391 4.70618 9.27335 4.74851 9.2561C4.77318 9.24605 4.7977 9.24844 4.80299 9.26144C4.80829 9.27443 4.8953 9.28102 4.9963 9.27608C5.0973 9.2711 5.24513 9.26933 5.32476 9.27208C5.65783 9.2836 5.74439 9.28227 5.78697 9.26493C5.81163 9.25488 5.83632 9.25767 5.84181 9.27112C5.84729 9.28458 5.94181 9.28998 6.05188 9.28311C6.16195 9.27624 6.30341 9.27861 6.36624 9.28831C6.42909 9.29805 6.4984 9.29879 6.52028 9.28995C6.54216 9.28111 6.62965 9.27908 6.71469 9.28539C6.79974 9.29173 6.95639 9.29381 7.06279 9.29002C7.1692 9.28623 7.31725 9.28954 7.39181 9.29739C7.46639 9.30526 7.54361 9.30508 7.56341 9.29701C7.58321 9.28894 7.69248 9.28658 7.80621 9.29175C7.91995 9.29695 8.09481 9.30492 8.19481 9.3095C8.2948 9.31407 8.43826 9.31303 8.51363 9.30716C8.58898 9.30133 8.72845 9.30296 8.82359 9.31077C8.91871 9.3186 9.01523 9.31746 9.03806 9.30823C9.06088 9.299 9.13136 9.30006 9.19466 9.31055C9.25797 9.32107 9.41534 9.323 9.54434 9.31486C9.67338 9.3067 9.7829 9.30977 9.78774 9.32165C9.79258 9.33354 9.8696 9.33541 9.95894 9.32583C10.0483 9.31622 10.1726 9.31599 10.2353 9.32532C10.298 9.33463 10.4385 9.33481 10.5477 9.32571C10.6569 9.31662 10.7508 9.32054 10.7564 9.33443C10.7621 9.34829 10.7869 9.35141 10.8116 9.34136C10.8566 9.32304 10.9661 9.3223 11.3177 9.33793C11.4213 9.34254 11.5165 9.34213 11.529 9.337C11.5416 9.33188 11.6183 9.33031 11.6994 9.33351C12.0533 9.34754 12.123 9.34697 12.1653 9.32973C12.19 9.31968 12.2146 9.32238 12.22 9.33571C12.2255 9.34908 12.3419 9.35428 12.4787 9.34729C12.6156 9.34031 12.7577 9.35427 12.7947 9.37827C12.9007 9.44715 12.9491 9.6144 12.9361 9.86707C12.9295 9.99543 12.9305 10.1162 12.9383 10.1353C12.9461 10.1545 12.9443 10.224 12.9342 10.2898C12.9242 10.3557 12.9214 10.4721 12.928 10.5485C12.9485 10.7829 12.9154 10.8345 12.704 10.8991C12.603 10.9299 12.4818 10.9477 12.4346 10.9386C12.3874 10.9295 12.2695 10.9244 12.1725 10.9272C12.0755 10.9301 11.962 10.9272 11.9201 10.9209C11.8783 10.9145 11.7577 10.9142 11.6522 10.9202C11.5467 10.9262 11.4493 10.9243 11.4358 10.9162C11.4224 10.908 11.3333 10.9062 11.238 10.9122C11.0689 10.9229 10.9282 10.9206 10.5561 10.9012C10.4558 10.896 10.2955 10.8965 10.1997 10.9022C10.1039 10.908 10.0148 10.9061 10.0017 10.8981C9.98866 10.8901 9.90824 10.8898 9.82304 10.8975C9.73784 10.9051 9.57742 10.9055 9.46652 10.8983C9.35565 10.8911 9.19501 10.891 9.10955 10.898C9.0241 10.905 8.94346 10.9042 8.9304 10.8962C8.91731 10.8882 8.82856 10.8862 8.73319 10.8917C8.63779 10.8973 8.5411 10.8964 8.51831 10.8898C8.4955 10.8832 8.38187 10.8808 8.26582 10.8844C8.14977 10.8879 8.03639 10.8855 8.01386 10.879C7.99134 10.8725 7.86742 10.8743 7.7385 10.883C7.60957 10.8917 7.5001 10.8891 7.49526 10.8772C7.49042 10.8653 7.41328 10.8632 7.3238 10.8724C7.23433 10.8817 7.08633 10.883 6.99488 10.8753C6.90342 10.8676 6.76307 10.868 6.68303 10.8762C6.60298 10.8844 6.53316 10.8806 6.52792 10.8678C6.52267 10.8549 6.40985 10.8535 6.27721 10.8647C6.1446 10.8759 6.02411 10.8763 6.00952 10.8656C5.9949 10.8548 5.90125 10.852 5.80138 10.8592C5.70152 10.8665 5.5799 10.8652 5.53109 10.8565C5.48228 10.8477 5.34726 10.8477 5.23103 10.8565C5.11483 10.8652 5.00005 10.8671 4.97599 10.8606C4.9519 10.8541 4.87659 10.8502 4.80861 10.852C4.74064 10.8538 4.62014 10.8536 4.54084 10.8517C4.46155 10.8497 4.33534 10.8468 4.26039 10.8451C4.18544 10.8434 4.10391 10.8503 4.07924 10.8603C4.05457 10.8704 4.03005 10.868 4.02475 10.855C4.01946 10.842 3.93245 10.8354 3.83144 10.8403C3.73045 10.8453 3.58262 10.8471 3.50299 10.8443C3.16992 10.8328 3.08336 10.8341 3.04078 10.8515C3.01612 10.8615 2.99143 10.8587 2.98594 10.8453C2.98046 10.8318 2.88965 10.8257 2.78414 10.8317C2.67862 10.8377 2.58858 10.8334 2.58403 10.8223C2.57949 10.8111 2.49683 10.8114 2.40031 10.8229C2.30381 10.8345 2.14944 10.83 2.05727 10.813C1.90203 10.7844 1.88575 10.7724 1.83642 10.6501C1.78586 10.5249 1.7526 10.2493 1.77735 10.1608C1.78367 10.1383 1.78583 10.032 1.7822 9.92466C1.77856 9.81728 1.78041 9.67887 1.78633 9.61708C1.79224 9.55529 1.79035 9.48804 1.78218 9.46762C1.74108 9.36524 1.94793 9.24869 2.19226 9.2365Z" fill="#78BF49"/>
</svg>
