<svg width="408" height="260" viewBox="0 0 408 260" fill="none" xmlns="http://www.w3.org/2000/svg">
<path d="M0 61H308.5C363.452 61 408 105.548 408 160.5C408 215.452 363.452 260 308.5 260H0V61Z" fill="#69B935"/>
<mask id="mask0_299_142" style="mask-type:alpha" maskUnits="userSpaceOnUse" x="0" y="77" width="391" height="167">
<path d="M0 77H307.5C353.616 77 391 114.384 391 160.5C391 206.616 353.616 244 307.5 244H0V77Z" fill="#69B935"/>
</mask>
<g mask="url(#mask0_299_142)">
<path d="M-1102.72 300.287C-1097.46 304.343 -1089.73 303.124 -1085.67 297.872C-1081.61 292.62 -1082.83 284.905 -1088.09 280.849C-1114.41 261.101 -1129.92 229.558 -1129.46 196.914C-1128.66 139.851 -1081.48 94.325 -1024.58 95.1249C-1000.12 95.4688 -981.336 102.104 -962.136 117.24C-946.093 129.942 -895.651 173.655 -870.433 195.777L-949.612 228.908C-944.651 216.501 -942.596 202.726 -944.256 188.368C-947.608 162.041 -962.989 140.057 -984.619 127.542C-999.654 118.836 -1017.41 114.604 -1036.06 116.997C-1081.08 122.469 -1113.04 163.697 -1107.55 208.636C-1102.07 253.576 -1060.77 285.481 -1015.75 280.008C-1005.36 278.827 -995.74 275.511 -986.899 270.857L-848.866 212.804C-832.048 227.11 -816.545 240.335 -808.654 246.552C-785.245 264.932 -761.433 273.496 -731.655 273.915C-667.846 274.812 -614.277 228.579 -603.847 167.67C-588.676 128.861 -550.534 101.79 -506.665 102.407C-482.205 102.75 -463.417 109.386 -444.217 124.521C-428.175 137.223 -377.732 180.937 -352.514 203.059L-431.69 235.924C-426.729 223.517 -424.674 209.742 -426.333 195.384C-429.686 169.057 -445.066 147.073 -466.696 134.558C-481.732 125.852 -499.489 121.62 -518.137 124.013C-563.156 129.485 -595.114 170.713 -589.63 215.653C-584.145 260.592 -542.844 292.497 -497.826 287.024C-487.438 285.843 -477.818 282.527 -468.977 277.873L-330.416 220.093C-313.598 234.399 -298.094 247.624 -290.204 253.841C-266.795 272.221 -242.982 280.785 -213.205 281.204C-173.058 281.768 -137.17 263.691 -113.366 235.091C-107.695 266.76 -90.2812 295.409 -64.2322 315.153C-58.9708 319.209 -51.2419 317.99 -47.1791 312.738C-43.1164 307.486 -44.3376 299.771 -49.599 295.715C-75.9138 275.967 -91.4259 244.425 -90.9669 211.78C-90.1646 154.717 -42.9878 109.191 13.9088 109.991C38.3691 110.335 57.1565 116.97 76.3561 132.106C92.399 144.808 142.842 188.521 168.06 210.643L88.8802 243.774C93.8412 231.367 95.8964 217.592 94.2368 203.234C90.884 176.907 75.5035 154.923 53.8737 142.408C38.8384 133.702 21.0809 129.47 2.43251 131.863C-42.5857 137.335 -74.5444 178.563 -69.0599 223.502C-63.5755 268.442 -22.2739 300.347 22.7443 294.874C33.1319 293.693 42.7519 290.377 51.5928 285.723L189.63 227.405C206.448 241.711 221.951 254.936 229.842 261.152C253.251 279.533 277.063 288.097 306.841 288.515C377.297 289.506 435.262 233.247 436.251 162.915C436.825 122.042 417.692 83.2821 385.06 58.932C379.798 54.8762 372.069 56.0948 368.007 61.3469C363.944 66.5989 365.165 74.3144 370.426 78.3702C396.741 98.1186 412.253 129.661 411.794 162.306C410.992 219.368 363.815 264.894 306.919 264.094C282.458 263.75 263.671 257.115 244.471 241.98C228.428 229.278 177.986 185.564 152.768 163.442L232.209 130.58C227.248 142.987 225.193 156.762 226.853 171.12C230.206 197.448 245.586 219.431 267.216 231.947C282.251 240.653 300.009 244.884 318.657 242.492C363.675 237.019 395.634 195.792 390.15 150.852C384.665 105.913 343.363 74.0078 298.345 79.4804C287.958 80.6617 278.338 83.9774 269.497 88.6313L130.935 146.411C114.117 132.106 98.6138 118.88 90.7235 112.664C67.3146 94.2834 43.5018 85.7194 13.7241 85.3008C-47.4264 84.441 -99.3479 126.981 -112.654 184.398C-112.916 184.129 -113.182 184.125 -113.444 183.856C-126.806 226.407 -166.862 257.168 -213.655 256.51C-238.115 256.166 -256.903 249.531 -276.102 234.395C-292.145 221.693 -342.588 177.98 -367.806 155.858L-288.626 122.727C-293.587 135.134 -295.643 148.909 -293.983 163.267C-290.63 189.594 -275.25 211.578 -253.62 224.093C-238.585 232.799 -220.827 237.031 -202.179 234.638C-157.161 229.166 -125.202 187.938 -130.686 142.998C-136.171 98.059 -177.472 66.1543 -222.491 71.6269C-232.878 72.8081 -242.498 76.1238 -251.339 80.7778L-389.9 138.558C-406.718 124.252 -422.222 111.027 -430.112 104.81C-453.521 86.4298 -477.334 77.8659 -507.112 77.4472C-546.195 76.8977 -581.54 94.1865 -605.329 121.725C-611.277 90.8483 -628.432 62.734 -653.957 43.5277C-659.219 39.4718 -666.947 40.6904 -671.01 45.9425C-675.073 51.1945 -673.852 58.91 -668.59 62.9658C-642.275 82.7142 -626.763 114.256 -627.222 146.901C-628.025 203.963 -675.201 249.49 -732.098 248.69C-756.558 248.346 -775.346 241.711 -794.545 226.575C-810.588 213.873 -861.031 170.16 -886.249 148.038L-807.069 114.907C-812.03 127.314 -814.086 141.089 -812.426 155.447C-809.073 181.774 -793.693 203.758 -772.063 216.273C-757.028 224.979 -739.27 229.211 -720.622 226.818C-675.604 221.346 -643.645 180.118 -649.129 135.179C-654.614 90.239 -695.915 58.3343 -740.934 63.8069C-751.321 64.9882 -760.941 68.3039 -769.782 72.9578L-908.343 130.738C-925.161 116.432 -940.665 103.207 -948.555 96.9902C-971.964 78.6099 -995.777 70.0459 -1025.55 69.6273C-1086.71 68.7675 -1138.63 111.307 -1151.93 168.725C-1152.19 168.455 -1152.46 168.452 -1152.72 168.182C-1166.09 210.733 -1206.14 241.494 -1252.93 240.836C-1277.39 240.492 -1296.18 233.857 -1315.38 218.722C-1331.42 206.02 -1381.87 162.306 -1407.08 140.184L-1327.91 107.053C-1332.87 119.46 -1334.92 133.235 -1333.26 147.593C-1329.91 173.921 -1314.53 195.904 -1292.9 208.42C-1277.86 217.126 -1260.11 221.357 -1241.46 218.965C-1196.44 213.492 -1164.48 172.265 -1169.97 127.325C-1175.45 82.3855 -1216.75 50.4807 -1261.77 55.9533C-1272.16 57.1346 -1281.78 60.4503 -1290.62 65.1042L-1429.18 122.884C-1446 108.578 -1461.5 95.3531 -1469.39 89.1366C-1492.8 70.7563 -1516.61 62.1923 -1546.39 61.7737C-1586.54 61.2092 -1622.43 79.2867 -1646.23 107.887C-1651.9 76.2178 -1669.31 47.5689 -1695.36 27.8242C-1700.62 23.7684 -1708.35 24.987 -1712.42 30.2391C-1716.48 35.4911 -1715.26 43.2066 -1710 47.2624C-1683.68 67.0108 -1668.17 98.553 -1668.63 131.198C-1669.43 188.26 -1716.61 233.786 -1773.5 232.987C-1797.96 232.643 -1816.75 226.008 -1835.95 210.872C-1851.99 198.17 -1902.44 154.456 -1927.65 132.334L-1848.48 99.2034C-1853.44 111.61 -1855.49 125.385 -1853.83 139.743C-1850.48 166.071 -1835.1 188.055 -1813.47 200.57C-1798.43 209.276 -1780.68 213.507 -1762.03 211.115C-1717.01 205.642 -1685.05 164.415 -1690.53 119.475C-1696.02 74.5356 -1737.32 42.6309 -1782.34 48.1035C-1792.73 49.2847 -1802.35 52.6005 -1811.19 57.2544L-1949.75 115.034C-1964.47 102.616 -1979.97 89.6564 -1987.86 83.4399C-2011.27 65.0596 -2035.09 56.4956 -2064.86 56.077C-2135.32 55.0864 -2193.28 111.345 -2194.27 181.677C-2194.84 222.284 -2175.71 261.045 -2143.08 285.395C-2137.82 289.451 -2130.09 288.232 -2126.03 282.98C-2121.96 277.728 -2123.18 270.013 -2128.44 265.957C-2154.76 246.208 -2170.27 214.666 -2169.81 182.021C-2169.28 125.221 -2122.37 79.6906 -2065.21 80.4943C-2040.75 80.8382 -2021.96 87.4733 -2002.76 102.609C-1986.72 115.311 -1936.27 159.024 -1911.06 181.147L-1990.24 214.277C-1985.27 201.871 -1983.22 188.096 -1984.88 173.738C-1988.23 147.41 -2003.61 125.426 -2025.24 112.911C-2040.28 104.205 -2058.03 99.9736 -2076.68 102.366C-2121.7 107.839 -2153.66 149.066 -2148.18 194.006C-2142.69 238.945 -2101.39 270.85 -2056.37 265.377C-2045.98 264.196 -2036.36 260.88 -2027.52 256.226L-1888.96 198.446C-1872.14 212.752 -1856.64 225.978 -1848.75 232.194C-1825.34 250.574 -1801.53 259.138 -1771.75 259.557C-1708.74 260.443 -1655.72 215.53 -1644.51 155.694C-1644.25 156.228 -1643.72 156.766 -1643.47 157.301C-1629.59 116.085 -1590.63 87.1667 -1545.16 87.8059C-1520.7 88.1498 -1501.91 94.7849 -1482.71 109.92C-1466.67 122.623 -1416.23 166.336 -1391.01 188.458L-1470.19 221.589C-1465.23 209.182 -1463.17 195.407 -1464.83 181.049C-1468.19 154.722 -1483.57 132.738 -1505.2 120.223C-1520.23 111.517 -1537.99 107.285 -1556.64 109.678C-1601.66 115.15 -1633.61 156.378 -1628.13 201.317C-1622.65 246.257 -1581.34 278.161 -1536.33 272.689C-1525.94 271.508 -1516.32 268.192 -1507.48 263.538L-1368.92 205.758C-1352.1 220.064 -1336.59 233.289 -1328.7 239.506C-1305.29 257.886 -1281.48 266.45 -1251.7 266.869C-1211.56 267.433 -1175.67 249.355 -1151.87 220.755C-1146.45 251.89 -1129.04 280.539 -1102.72 300.287ZM-997.757 248.671C-998.827 249.187 -999.629 249.441 -1000.17 249.965C-1005.79 252.806 -1012.2 254.839 -1018.86 255.542C-1031.65 257.22 -1044.11 254.391 -1055.19 248.129C-1057.56 246.769 -1059.67 245.412 -1061.78 243.789C-1073.88 234.328 -1081.66 220.68 -1083.57 205.257C-1085.48 189.834 -1081.28 174.762 -1071.8 162.684C-1062.33 150.606 -1048.66 142.834 -1033.21 140.928C-1017.75 139.021 -1002.66 143.216 -990.556 152.677C-978.457 162.138 -970.671 175.786 -968.761 191.209C-965.906 215.141 -977.921 237.536 -997.757 248.671ZM-479.572 255.957C-480.643 256.473 -481.444 256.727 -481.983 257.25C-487.608 260.091 -494.019 262.125 -500.677 262.827C-513.465 264.506 -525.923 261.676 -537.004 255.415C-539.378 254.054 -541.487 252.697 -543.591 251.075C-555.691 241.614 -563.476 227.966 -565.387 212.542C-567.298 197.119 -563.097 182.047 -553.62 169.969C-544.143 157.891 -530.471 150.12 -515.021 148.213C-499.57 146.307 -484.472 150.501 -472.372 159.962C-460.272 169.423 -452.487 183.071 -450.576 198.495C-447.456 222.43 -459.737 244.821 -479.572 255.957ZM40.7396 263.272C39.6686 263.788 38.8673 264.042 38.3281 264.565C32.7037 267.406 26.2929 269.44 19.6349 270.143C6.84696 271.821 -5.61171 268.991 -16.6925 262.73C-19.0667 261.369 -21.175 260.012 -23.2796 258.39C-35.3791 248.929 -43.165 235.281 -45.0755 219.858C-46.9861 204.434 -42.7853 189.362 -33.3081 177.284C-23.831 165.207 -10.1596 157.435 5.29089 155.529C20.7413 153.622 35.8401 157.816 47.9396 167.277C60.0391 176.739 67.8249 190.386 69.7355 205.81C72.5901 229.741 60.5746 252.136 40.7396 263.272ZM280.092 110.548C281.162 110.032 281.964 109.778 282.503 109.254C288.127 106.414 294.538 104.38 301.196 103.677C313.984 101.999 326.443 104.829 337.524 111.09C339.898 112.451 342.006 113.807 344.111 115.43C356.21 124.891 363.996 138.539 365.907 153.962C367.817 169.386 363.616 184.458 354.139 196.536C344.662 208.613 330.991 216.385 315.54 218.291C300.09 220.198 284.991 216.004 272.892 206.542C260.792 197.081 253.006 183.433 251.096 168.01C247.975 144.075 260.257 121.684 280.092 110.548ZM-240.22 103.233C-239.149 102.717 -238.348 102.463 -237.809 101.939C-232.184 99.0982 -225.773 97.0647 -219.115 96.3619C-206.327 94.6835 -193.869 97.5132 -182.788 103.775C-180.414 105.135 -178.305 106.492 -176.201 108.115C-164.101 117.576 -156.315 131.223 -154.405 146.647C-152.494 162.07 -156.695 177.142 -166.172 189.22C-175.649 201.298 -189.321 209.07 -204.771 210.976C-220.222 212.882 -235.32 208.688 -247.42 199.227C-259.519 189.766 -267.305 176.118 -269.216 160.695C-272.071 136.763 -260.055 114.368 -240.22 103.233ZM-758.405 95.9472C-757.334 95.4313 -756.532 95.1771 -755.993 94.6538C-750.369 91.8128 -743.958 89.7793 -737.3 89.0765C-724.512 87.3981 -712.053 90.2279 -700.972 96.4892C-698.598 97.8498 -696.49 99.2068 -694.385 100.829C-682.286 110.29 -674.5 123.938 -672.589 139.362C-670.679 154.785 -674.88 169.857 -684.357 181.935C-693.834 194.013 -707.505 201.784 -722.956 203.691C-738.406 205.597 -753.505 201.403 -765.605 191.942C-777.704 182.481 -785.49 168.833 -787.401 153.409C-790.255 129.478 -778.24 107.083 -758.405 95.9472ZM-1278.45 88.6356C-1277.38 88.1198 -1276.58 87.8656 -1276.04 87.3422C-1270.41 84.5013 -1264 82.4677 -1257.35 81.765C-1244.56 80.0866 -1232.1 82.9163 -1221.02 89.1776C-1218.64 90.5383 -1216.54 91.8952 -1214.43 93.5176C-1202.33 102.979 -1194.55 116.627 -1192.64 132.05C-1190.72 147.473 -1194.93 162.545 -1204.4 174.623C-1213.88 186.701 -1227.55 194.473 -1243 196.379C-1258.45 198.286 -1273.55 194.091 -1285.65 184.63C-1297.75 175.169 -1305.54 161.521 -1307.45 146.098C-1310.57 122.163 -1298.55 99.7677 -1278.45 88.6356ZM-1798.76 81.3203C-1797.69 80.8045 -1796.89 80.5503 -1796.35 80.0269C-1790.73 77.186 -1784.32 75.1524 -1777.66 74.4497C-1764.87 72.7713 -1752.41 75.601 -1741.33 81.8623C-1738.96 83.223 -1736.85 84.5799 -1734.74 86.2023C-1722.64 95.6634 -1714.86 109.311 -1712.95 124.735C-1711.04 140.158 -1715.24 155.23 -1724.71 167.308C-1734.19 179.386 -1747.86 187.157 -1763.31 189.064C-1778.76 190.97 -1793.86 186.776 -1805.96 177.315C-1818.06 167.854 -1825.85 154.206 -1827.76 138.783C-1830.88 114.847 -1818.6 92.4562 -1798.76 81.3203ZM-2038.38 234.041C-2039.45 234.557 -2040.25 234.811 -2040.79 235.334C-2046.42 238.175 -2052.83 240.209 -2059.48 240.911C-2072.27 242.59 -2084.73 239.76 -2095.81 233.499C-2098.19 232.138 -2100.29 230.781 -2102.4 229.159C-2114.5 219.698 -2122.28 206.05 -2124.19 190.626C-2126.11 175.203 -2121.9 160.131 -2112.43 148.053C-2102.95 135.975 -2089.28 128.204 -2073.83 126.297C-2058.38 124.391 -2043.28 128.585 -2031.18 138.046C-2019.08 147.507 -2011.29 161.155 -2009.38 176.579C-2006.26 200.514 -2018.54 222.905 -2038.38 234.041ZM-1518.07 241.356C-1519.14 241.872 -1519.94 242.126 -1520.48 242.649C-1526.1 245.49 -1532.51 247.524 -1539.17 248.227C-1551.96 249.905 -1564.42 247.075 -1575.5 240.814C-1577.87 239.453 -1579.98 238.096 -1582.09 236.474C-1594.19 227.013 -1601.97 213.365 -1603.88 197.942C-1605.79 182.518 -1601.59 167.446 -1592.12 155.368C-1582.64 143.291 -1568.97 135.519 -1553.52 133.613C-1538.07 131.706 -1522.97 135.9 -1510.87 145.361C-1498.77 154.823 -1490.98 168.47 -1489.07 183.894C-1485.95 207.829 -1498.23 230.22 -1518.07 241.356Z" fill="white" fill-opacity="0.15"/>
</g>
<mask id="mask1_299_142" style="mask-type:alpha" maskUnits="userSpaceOnUse" x="48" y="0" width="306" height="260">
<rect x="48" width="306" height="260" fill="#D9D9D9"/>
</mask>
<g mask="url(#mask1_299_142)">
<path d="M110.508 153.966C110.508 153.966 102.046 147.055 96.8698 145.184C94.532 142.016 92.9793 139.82 91.9441 138.315C91.3453 137.45 90.4321 136.833 89.3846 136.585C88.3371 136.337 87.2312 136.477 86.2851 136.976H86.2248C85.4948 137.365 84.8977 137.951 84.5057 138.661C84.1137 139.371 83.9438 140.175 84.0164 140.976L85.0688 152.394L111 154.465" fill="#E28B7D"/>
<path d="M158.214 113.465C158.214 113.465 134.397 124.928 133.229 139.819C132.062 154.711 130.328 181.056 130.328 181.056L112.854 157.302C111.231 155.086 109.17 153.217 106.795 151.808C104.42 150.398 101.78 149.478 99.0349 149.101C94.0894 148.438 88.3298 148.875 84.437 152.992L69.9188 147.261L66.4595 138.214C66.2317 137.611 65.8823 137.06 65.4325 136.594C64.9827 136.128 64.4417 135.756 63.8423 135.502C63.2429 135.247 62.5973 135.115 61.9448 135.114C61.2922 135.112 60.646 135.241 60.0453 135.492H59.9568C58.8616 135.95 57.9753 136.789 57.4663 137.849C56.9573 138.909 56.8613 140.116 57.1965 141.241L62.9472 160.434C62.9472 160.434 69.3349 171.513 94.3105 172.56C108.997 197.954 119.967 216.335 128.063 229.587C136.299 243.03 156.736 240.753 161.682 225.827L164 218.848L158.214 113.465Z" fill="#FFA08C"/>
<path d="M130 181.465L148 208.465" stroke="black" stroke-width="0.98" stroke-miterlimit="10"/>
<path d="M132 168.37C132.568 159.525 133.313 148.22 133.906 140.188C135.025 125.088 157.831 113.465 157.831 113.465L161 174.465C154.443 171.634 142.692 167.521 132 168.37Z" fill="#14B0C2"/>
<path d="M136.562 224.465C140.463 224.462 144.316 225.229 147.849 226.713C151.381 228.197 154.506 230.362 157 233.052C155.051 234.962 152.633 236.439 149.936 237.365C147.24 238.29 144.341 238.639 141.468 238.384C138.595 238.129 135.828 237.276 133.387 235.894C130.945 234.511 128.897 232.638 127.404 230.421L125 226.827C128.606 225.266 132.559 224.459 136.562 224.465Z" fill="#EF8270"/>
<path d="M250.795 113.465C250.795 113.465 274.603 124.931 275.771 139.827C276.938 154.722 278.673 181.075 278.673 181.075L296.146 157.314C297.769 155.098 299.83 153.228 302.205 151.818C304.58 150.409 307.22 149.488 309.965 149.111C314.911 148.448 320.67 148.885 324.563 153.003L339.081 147.27L342.54 138.186C342.768 137.583 343.118 137.032 343.567 136.565C344.017 136.099 344.558 135.727 345.158 135.473C345.757 135.219 346.403 135.087 347.055 135.085C347.708 135.083 348.354 135.212 348.955 135.464H349.043C350.138 135.921 351.025 136.76 351.534 137.821C352.043 138.881 352.139 140.089 351.804 141.214L346.053 160.412C346.053 160.412 339.665 171.494 314.689 172.541C300.003 197.943 289.033 216.329 280.937 229.584C272.701 243.031 252.264 240.754 247.318 225.823L245 218.842L250.795 113.465Z" fill="#FFA08C"/>
<path d="M279 181.465L261 208.465" stroke="black" stroke-width="0.98" stroke-miterlimit="10"/>
<path d="M277 168.374C276.413 159.533 275.642 148.235 275.028 140.208C273.871 125.117 250.287 113.465 250.287 113.465L247 174.465C253.784 171.636 265.94 167.525 277 168.374Z" fill="#14B0C2"/>
<path d="M271.161 224.465C267.504 224.462 263.891 225.229 260.579 226.713C257.268 228.197 254.338 230.362 252 233.052C253.827 234.962 256.094 236.439 258.622 237.365C261.15 238.29 263.868 238.639 266.561 238.384C269.255 238.129 271.849 237.276 274.137 235.894C276.426 234.512 278.347 232.638 279.746 230.421L282 226.827C278.62 225.266 274.914 224.458 271.161 224.465Z" fill="#EF8270"/>
<path d="M214.733 93.4651L203.5 105.702L192.258 93.4651L157 112.65V286.31C157 286.31 174.117 294.465 203.5 294.465C232.883 294.465 250 286.31 250 286.31V112.65L214.733 93.4651Z" fill="#18C4D8"/>
<path d="M215.578 93.4651L204.242 106.287L192.898 93.4651L168 107.561C171.702 115.287 182.092 131.465 204.224 131.465C224.599 131.465 234.75 116.003 239 106.733L215.578 93.4651Z" fill="#118998"/>
<path d="M234 103.578L216.151 93.4651L204.701 106.462L193.242 93.4651L175 103.832C182.836 115.425 193.126 122.465 204.397 122.465C215.669 122.465 226.137 115.321 234 103.578Z" fill="#FFA08C"/>
<path d="M186.076 56.918L184 36.4651L195 36.535L192.481 58.4651L186.076 56.918Z" fill="#7A150A"/>
<path d="M223.346 56.7772L224.891 43.8133C225.167 41.5038 224.916 39.1663 224.153 36.9531C223.39 34.74 222.133 32.7012 220.464 30.9697C218.795 29.2382 216.752 27.8529 214.467 26.9044C212.182 25.9559 209.708 25.4655 207.205 25.4651H207L212.231 48.3075L219.623 59.4651L223.346 56.7772Z" fill="#7A150A"/>
<path d="M188.691 48.2235C188.691 48.2235 176.472 38.1312 177.018 22.6026C177.564 7.07402 184.704 9.84097 192.243 18.4345C195.71 20.9354 199.774 20.9354 195.311 16.7761C190.848 12.6168 202.244 13.2287 206.828 18.7892C213.535 26.7708 224.333 25.5204 218.163 43.0621C211.993 60.6039 188.691 48.2235 188.691 48.2235Z" fill="#5D1408"/>
<path d="M217.936 103.206V77.4651L204.5 80.6192L191.064 77.4651V103.206C191.064 103.206 190.92 105.514 191.064 109.488C191.503 126.791 217.488 126.791 217.936 109.488C218.08 105.514 217.936 103.206 217.936 103.206Z" fill="#FFA08C"/>
<g style="mix-blend-mode:multiply">
<path d="M191 77.4651V101.465C202.41 98.9062 214.407 88.8949 218 85.7524V77.4651L204.459 80.6435L191 77.4651Z" fill="#6D3E3B"/>
</g>
<path d="M184.139 64.2153C184.749 68.0668 187.196 70.8302 189.607 70.4258C192.017 70.0214 193.471 66.5743 192.861 62.7228C192.251 58.8713 189.804 56.1078 187.393 56.5026C184.983 56.8974 183.529 60.3734 184.139 64.2153Z" fill="#FFA08C"/>
<path d="M191.797 66.0232C191.187 62.2374 188.735 59.5211 186.33 59.9186C185.844 60.0145 185.385 60.2146 184.983 60.5053C184.581 60.796 184.246 61.1705 184 61.6033C184.197 58.9153 185.494 56.8142 187.363 56.5019C189.778 56.1138 192.229 58.8396 192.84 62.616C193.232 64.6161 192.898 66.6915 191.901 68.4651C191.963 67.6499 191.929 66.8301 191.797 66.0232Z" fill="#FFA08C"/>
<g style="mix-blend-mode:multiply">
<path d="M186 56.9842C186.364 56.7448 186.773 56.5809 187.203 56.5025C189.695 56.1076 192.226 58.882 192.856 62.7258C193.487 66.5696 191.984 69.9991 189.491 70.4326C188.679 70.5449 187.853 70.3637 187.164 69.9221C186.786 66.1361 186.398 61.8202 186 56.9842Z" fill="#AF7579"/>
</g>
<path d="M224.861 64.2153C224.251 68.0668 221.804 70.8302 219.393 70.4258C216.983 70.0214 215.529 66.5743 216.139 62.7228C216.749 58.8713 219.196 56.1078 221.607 56.5026C224.017 56.8974 225.471 60.3734 224.861 64.2153Z" fill="#FFA08C"/>
<path d="M217.203 66.0232C217.813 62.2374 220.265 59.5211 222.68 59.9186C223.163 60.0158 223.621 60.2164 224.021 60.5071C224.422 60.7977 224.755 61.1715 225 61.6033C224.803 58.9153 223.506 56.8142 221.637 56.5019C219.222 56.1138 216.771 58.8396 216.16 62.616C215.768 64.6161 216.102 66.6915 217.099 68.4651C217.037 67.6499 217.071 66.8301 217.203 66.0232Z" fill="#FFA08C"/>
<g style="mix-blend-mode:multiply">
<path d="M222 56.9842C221.688 56.7448 221.337 56.5809 220.969 56.5025C218.833 56.1076 216.663 58.882 216.123 62.7258C215.583 66.5696 216.871 69.9991 219.008 70.4326C219.704 70.5449 220.412 70.3637 221.003 69.9221C221.327 66.1361 221.659 61.8202 222 56.9842Z" fill="#AF7579"/>
</g>
<path d="M216.158 35.2737C212.485 34.5888 208.744 34.3377 205.013 34.5254C201.279 34.3376 197.535 34.5887 193.859 35.2737C192.132 35.6067 190.586 36.5613 189.51 37.9585C188.434 39.3557 187.902 41.0994 188.015 42.8624C188.812 56.1559 189.767 66.5089 190.547 73.8071C190.946 77.4942 192.563 80.9408 195.138 83.5974C197.714 86.254 201.101 87.9677 204.759 88.4651H205.013H205.258C208.913 87.9641 212.296 86.2488 214.868 83.5925C217.441 80.9362 219.054 77.4916 219.453 73.8071C220.241 66.5089 221.205 56.1999 221.985 42.8624C222.098 41.102 221.569 39.3603 220.497 37.9635C219.424 36.5667 217.882 35.6105 216.158 35.2737Z" fill="#FFA08C"/>
<g opacity="0.49">
<path d="M201.006 34.7571C201.006 34.7571 201.604 34.7131 202.632 34.6956C202.008 34.6956 201.217 34.6956 200.303 34.6956L201.006 34.7571Z" fill="white"/>
<path d="M215.439 35.5042C211.982 34.8691 208.466 34.6068 204.953 34.7219C207.383 34.8047 209.804 35.0662 212.196 35.5042C213.928 35.8367 215.479 36.7898 216.559 38.1849C217.638 39.5799 218.171 41.3208 218.058 43.0811C217.259 56.3538 216.301 66.6906 215.518 73.9774C215.138 77.4157 213.69 80.6487 211.379 83.2229C209.068 85.797 206.01 87.5834 202.632 88.3313C203.081 88.4368 203.511 88.5159 204.004 88.5774H204.258H204.505C208.166 88.0788 211.555 86.3713 214.135 83.7262C216.715 81.0811 218.337 77.6499 218.744 73.9774C219.535 66.6906 220.502 56.3977 221.284 43.0811C221.398 41.3234 220.867 39.5845 219.791 38.1898C218.715 36.7952 217.168 35.8404 215.439 35.5042Z" fill="white"/>
</g>
<g style="mix-blend-mode:multiply">
<path d="M207.501 34.7571C207.501 34.7571 206.903 34.7131 205.875 34.6956C206.499 34.6956 207.29 34.6956 208.204 34.6956L207.501 34.7571Z" fill="#AF7579"/>
</g>
<path d="M209 57.5507C209 57.5507 209.885 52.4651 213.799 52.4651C217.713 52.4651 218 55.7277 218 55.7277C216.772 57.1099 215.281 58.0117 213.693 58.3335C212.104 58.6552 210.48 58.3843 209 57.5507Z" fill="#F8FAEC"/>
<path d="M211.072 49.3746C212.821 48.6515 214.629 48.4581 216.416 48.8031C216.616 48.8386 216.817 48.802 217.008 48.6958C217.198 48.5895 217.374 48.416 217.523 48.1863C217.672 47.9566 217.792 47.6758 217.874 47.362C217.956 47.0483 217.999 46.7085 218 46.3645C218 45.7688 217.873 45.1935 217.645 44.7452C217.416 44.2968 217.101 44.0058 216.757 43.926C214.666 43.395 212.545 43.3225 210.443 43.7101C210.046 43.8045 209.681 44.1414 209.416 44.659C209.151 45.1767 209.003 45.8406 209 46.5296V46.6693C209.004 47.0994 209.065 47.5221 209.179 47.9057C209.292 48.2894 209.454 48.624 209.654 48.8844C209.853 49.1448 210.085 49.3242 210.33 49.4091C210.576 49.494 210.83 49.4822 211.072 49.3746Z" fill="#862837"/>
<path d="M200 57.5507C200 57.5507 198.918 52.4651 194.144 52.4651C189.37 52.4651 189 55.7277 189 55.7277C190.501 57.1099 192.323 58.0117 194.264 58.3335C196.206 58.6552 198.191 58.3843 200 57.5507Z" fill="#F8FAEC"/>
<path d="M197.432 49.3579C195.304 48.6368 193.103 48.444 190.928 48.788C190.685 48.8233 190.44 48.7869 190.208 48.6809C189.976 48.575 189.762 48.402 189.581 48.1729C189.399 47.9439 189.253 47.6639 189.153 47.3511C189.054 47.0382 189.001 46.6994 189 46.3564C189.001 45.7605 189.156 45.1853 189.436 44.7379C189.716 44.2906 190.102 44.0017 190.523 43.9249C193.064 43.3952 195.643 43.3228 198.198 43.7096C198.684 43.7884 199.134 44.1109 199.465 44.6179C199.796 45.125 199.986 45.7826 200 46.4704V46.6097C200.002 47.0497 199.931 47.4844 199.793 47.8794C199.655 48.2744 199.454 48.6187 199.204 48.8853C198.955 49.1519 198.666 49.3334 198.358 49.4154C198.051 49.4974 197.734 49.4777 197.432 49.3579Z" fill="#862837"/>
<path d="M209 58.4651C209 58.4651 210.499 52.4651 213.799 52.4651C217.099 52.4651 218 56.3144 218 56.3144" stroke="#5D1408" stroke-width="1.2" stroke-miterlimit="10" stroke-linecap="round"/>
<path d="M200 58.4651C200 58.4651 198.178 52.4651 194.144 52.4651C190.11 52.4651 189 56.3144 189 56.3144" stroke="#5D1408" stroke-width="1.2" stroke-miterlimit="10" stroke-linecap="round"/>
<path d="M202.461 59.4651L202 68.4651L205 66.5759" stroke="#5D1408" stroke-width="1.2" stroke-miterlimit="10" stroke-linecap="round"/>
<path d="M200 72.4651C203.013 72.4651 206.02 72.4651 209 72.4651" stroke="#5D1408" stroke-width="1.2" stroke-miterlimit="10" stroke-linecap="round"/>
<path d="M209 54.6515C209.155 55.6417 209.631 56.5524 210.352 57.2421C211.074 57.9317 212.001 58.3616 212.99 58.4651C213.874 58.3963 214.747 58.2271 215.594 57.9608C216.32 57.5745 216.928 56.9956 217.352 56.2866C217.776 55.5775 218 54.7652 218 53.9371C218 53.8006 218 53.664 218 53.5274C216.776 52.7598 215.346 52.3929 213.906 52.4769C212.979 52.4429 212.056 52.6209 211.206 52.9975C210.357 53.3741 209.602 53.9395 209 54.6515Z" fill="#5D1408"/>
<path d="M198 54.6515C197.879 55.6417 197.51 56.5524 196.949 57.2421C196.388 57.9317 195.668 58.3616 194.9 58.4651C194.213 58.3963 193.534 58.2271 192.876 57.9608C192.312 57.5745 191.839 56.9956 191.51 56.2866C191.18 55.5775 191.006 54.7652 191.006 53.9371C190.998 53.8008 190.998 53.6638 191.006 53.5274C191.958 52.7598 193.069 52.3929 194.187 52.4769C194.908 52.4429 195.625 52.6209 196.286 52.9975C196.946 53.3741 197.532 53.9395 198 54.6515Z" fill="#5D1408"/>
<g style="mix-blend-mode:overlay" opacity="0.22">
<path d="M215.951 35.2773C212.147 34.5894 208.274 34.3371 204.411 34.5257C200.544 34.337 196.668 34.5893 192.861 35.2773C192.473 35.3493 192.091 35.4498 191.718 35.578C190.566 47.2412 188.588 82.4433 206.026 88.4651C209.525 87.7167 212.695 85.9159 215.088 83.3171C217.481 80.7183 218.976 77.4526 219.362 73.981C220.179 66.6506 221.177 56.296 221.984 42.8996C222.102 41.1313 221.554 39.382 220.443 37.979C219.333 36.576 217.736 35.6155 215.951 35.2773Z" fill="white"/>
</g>
<g style="mix-blend-mode:multiply" opacity="0.41">
<path d="M191.109 100.936V95.829L157.576 113.822C157.576 113.822 133.913 125.372 132.753 140.376C131.628 155.09 129.94 180.897 129.87 181.873L139.389 194.908C139.389 194.908 137.245 146.142 141.191 136.807C145.138 127.472 191.109 100.936 191.109 100.936Z" fill="#AF7579"/>
</g>
<path opacity="0.6" d="M279 181.988C279 181.988 277.255 155.371 276.138 140.326C275.021 125.282 251.506 113.665 251.506 113.665L218 95.4651C218 95.4651 260.659 126.004 263.172 132.438C265.685 138.872 267.762 197.465 267.762 197.465L279 181.988Z" fill="white" fill-opacity="0.3"/>
<path d="M157 138.465V151.221C194.648 153.571 233.242 152.034 250 151.133V138.695C212.01 141.177 172.226 139.357 157 138.465Z" fill="#14B0C2"/>
<path d="M157 170.465V184.128C194.648 186.656 233.242 184.999 250 184.033V170.711C212.01 173.372 172.226 171.412 157 170.465Z" fill="#14B0C2"/>
<path d="M157 202.465V214.31C194.648 216.492 233.242 215.065 250 214.228V202.678C212.01 204.983 172.226 203.294 157 202.465Z" fill="#14B0C2"/>
<path d="M157 233.465V246.217C194.648 248.576 233.242 247.03 250 246.128V233.695C212.01 236.178 172.226 234.349 157 233.465Z" fill="#14B0C2"/>
<g style="mix-blend-mode:multiply" opacity="0.79">
<path d="M257 238.465L250 161.465V233.8C251.929 235.766 254.314 237.356 257 238.465Z" fill="#020202"/>
</g>
<g style="mix-blend-mode:multiply" opacity="0.79">
<path d="M152 238.465L157 161.465V233.8C155.62 235.764 153.916 237.354 152 238.465Z" fill="#020202"/>
</g>
<g style="mix-blend-mode:multiply" opacity="0.41">
<path d="M145 238.462C144.107 213.547 102.736 163.909 102.736 163.909C102.736 163.909 74.5994 160.464 69.7596 158.319C66.1878 156.749 61.0711 143.494 58.5351 136.465C57.8796 137.069 57.4076 137.838 57.1712 138.688C56.9349 139.537 56.9434 140.434 57.1957 141.279L62.9999 160.464C62.9999 160.464 69.447 171.54 94.6552 172.586C109.478 197.972 120.551 216.346 128.721 229.593C130.39 232.345 132.775 234.615 135.635 236.173C138.495 237.731 141.726 238.521 145 238.462Z" fill="#AF7579"/>
</g>
<g style="mix-blend-mode:overlay" opacity="0.33">
<path d="M264 238.462C264.893 213.547 306.263 163.909 306.263 163.909C306.263 163.909 334.4 160.464 339.24 158.319C342.767 156.749 347.928 143.494 350.473 136.465C351.126 137.071 351.596 137.84 351.831 138.69C352.065 139.539 352.056 140.435 351.804 141.279L345.999 160.464C345.999 160.464 339.552 171.54 314.344 172.586C299.521 197.972 288.449 216.346 280.278 229.593C278.61 232.345 276.225 234.615 273.365 236.173C270.505 237.731 267.274 238.521 264 238.462Z" fill="white"/>
</g>
<path opacity="0.3" d="M207.492 209.538C211.441 190.474 171.239 251.55 217.321 294.465C238.163 292.696 250 286.875 250 286.875V138.465C250 138.465 240.69 209.308 221.321 232.725C201.952 256.142 203.51 228.594 207.492 209.538Z" fill="white" fill-opacity="0.3"/>
</g>
<path fill-rule="evenodd" clip-rule="evenodd" d="M78.4339 108.73C74.7618 109.259 70.934 109.538 67 109.538C39.3858 109.538 17 95.7626 17 78.7692C17 61.7759 39.3858 48 67 48C94.6142 48 117 61.7759 117 78.7692C117 89.4709 108.122 98.8965 94.6511 104.409L107.385 123L78.4339 108.73Z" fill="#EDEEF0"/>
<path fill-rule="evenodd" clip-rule="evenodd" d="M349.293 109.983C368.63 106.952 382.953 95.9789 382.953 82.907C382.953 67.4944 363.041 55 338.477 55C313.913 55 294 67.4944 294 82.907C294 97.7817 312.547 109.938 335.923 110.769L336.103 130L349.293 109.983Z" fill="#EDEEF0"/>
<path d="M45.4384 82.1172C45.5166 82.1172 45.5556 82.1484 45.5556 82.2109V84.8828C45.5556 84.9609 45.5166 85 45.4384 85H38.8642V66.7656H42.4384V82.1172H45.4384ZM55.1355 82.1172C55.2136 82.1172 55.2527 82.1484 55.2527 82.2109V84.8828C55.2527 84.9609 55.2136 85 55.1355 85H45.4441C45.3659 85 45.3269 84.9609 45.3269 84.8828V82.2109C45.3269 82.1484 45.3659 82.1172 45.4441 82.1172H48.4441V73.1172H52.0183V82.1172H55.1355ZM50.155 91C49.655 91 49.2605 90.8438 48.9714 90.5312C48.6823 90.2266 48.5378 89.8086 48.5378 89.2773C48.5378 88.7383 48.6784 88.3125 48.9597 88C49.2488 87.6953 49.6472 87.543 50.155 87.543C50.6394 87.543 51.0222 87.6953 51.3034 88C51.5925 88.3047 51.737 88.7305 51.737 89.2773C51.737 89.8086 51.5886 90.2266 51.2917 90.5312C51.0027 90.8438 50.6238 91 50.155 91ZM55.1528 85C55.0747 85 55.0356 84.9609 55.0356 84.8828V82.2109C55.0356 82.1484 55.0747 82.1172 55.1528 82.1172H64.8208V82.0938C64.1958 81.5312 63.7153 80.3945 63.3794 78.6836C63.1606 77.6055 62.8364 76.8516 62.4067 76.4219C61.9848 75.9844 61.3481 75.7656 60.4966 75.7656C59.9341 75.7656 59.4067 75.8359 58.9145 75.9766C58.4223 76.1172 57.8872 76.3477 57.3091 76.668L56.2309 74.0312C57.6606 73.2656 59.3325 72.8828 61.2466 72.8828C62.8481 72.8828 64.0942 73.2422 64.9848 73.9609C65.8755 74.6797 66.4614 75.8633 66.7427 77.5117C67.1567 79.8945 67.7153 81.4297 68.4184 82.1172V85H55.1528ZM81.8186 82.1172C81.8967 82.1172 81.9358 82.1484 81.9358 82.2109V84.8828C81.9358 84.9609 81.8967 85 81.8186 85H78.7014V85.3867C78.7014 87.0352 78.2444 88.3438 77.3303 89.3125C76.4241 90.2812 75.2092 90.7656 73.6858 90.7656C72.8655 90.7656 72.1116 90.668 71.4241 90.4727C70.7444 90.2773 70.0256 89.9258 69.2678 89.418L70.7092 87.0859C71.1311 87.3516 71.5022 87.5352 71.8225 87.6367C72.1506 87.7383 72.5413 87.7891 72.9944 87.7891C73.635 87.7891 74.1506 87.543 74.5413 87.0508C74.9319 86.5664 75.1272 85.9531 75.1272 85.2109V73.1172H78.7014V82.1172H81.8186ZM84.543 82.1172C84.1133 81.1328 83.8984 80.0312 83.8984 78.8125C83.8984 78.1172 84.0156 77.3672 84.25 76.5625C84.4844 75.7578 84.7734 75.0664 85.1172 74.4883C85.8906 74.043 86.7109 73.7031 87.5781 73.4688C88.4531 73.2344 89.2188 73.1172 89.875 73.1172C90.9688 73.1172 91.9609 73.3516 92.8516 73.8203C93.75 74.2891 94.4453 74.9531 94.9375 75.8125C95.4297 76.6641 95.6758 77.6562 95.6758 78.7891C95.6758 80.0078 95.3906 81.0859 94.8203 82.0234C94.2578 82.9609 93.4727 83.6914 92.4648 84.2148C91.457 84.7383 90.3438 85 89.125 85H81.8359C81.7578 85 81.7188 84.9609 81.7188 84.8828V82.2109C81.7188 82.1484 81.7578 82.1172 81.8359 82.1172H84.543ZM87.2148 79.3164C87.2148 80.1289 87.3984 81.0625 87.7656 82.1172H88.668C89.6367 82.1172 90.4453 81.793 91.0938 81.1445C91.75 80.4961 92.0781 79.7109 92.0781 78.7891C92.0781 77.9375 91.8711 77.2617 91.457 76.7617C91.043 76.2539 90.4922 76 89.8047 76C89.0859 76 88.3398 76.2227 87.5664 76.668C87.332 77.5117 87.2148 78.3945 87.2148 79.3164Z" fill="#69B935"/>
<path d="M320.192 92H323.552V75.248H320.192V82.136H313.016V75.248H309.656V92H313.016V84.872H320.192V92ZM332.571 81.248C334.299 81.248 335.691 82.352 335.739 84.104H329.427C329.691 82.28 330.963 81.248 332.571 81.248ZM338.883 87.824H335.259C334.827 88.712 334.035 89.432 332.595 89.432C330.915 89.432 329.571 88.328 329.403 86.36H339.123C339.195 85.928 339.219 85.496 339.219 85.064C339.219 81.104 336.507 78.488 332.667 78.488C328.731 78.488 325.995 81.152 325.995 85.352C325.995 89.528 328.803 92.216 332.667 92.216C335.955 92.216 338.163 90.272 338.883 87.824ZM341.672 92H345.032V74.24H341.672V92ZM348.351 92H351.711V74.24H348.351V92ZM367.871 85.352C367.871 81.152 364.871 78.488 361.031 78.488C357.191 78.488 354.191 81.152 354.191 85.352C354.191 89.528 357.095 92.216 360.935 92.216C364.799 92.216 367.871 89.528 367.871 85.352ZM357.599 85.352C357.599 82.688 359.207 81.416 360.983 81.416C362.759 81.416 364.415 82.688 364.415 85.352C364.415 87.992 362.711 89.288 360.935 89.288C359.135 89.288 357.599 87.992 357.599 85.352Z" fill="#3F3CC7"/>
</svg>
