<svg width="9" height="11" viewBox="0 0 9 11" fill="none" xmlns="http://www.w3.org/2000/svg">
<path d="M4.50008 5.50001C4.798 5.50001 5.05312 5.39384 5.26546 5.18151C5.47743 4.96954 5.58342 4.71459 5.58342 4.41668C5.58342 4.11876 5.47743 3.86363 5.26546 3.6513C5.05312 3.43933 4.798 3.33334 4.50008 3.33334C4.20216 3.33334 3.94722 3.43933 3.73525 3.6513C3.52291 3.86363 3.41675 4.11876 3.41675 4.41668C3.41675 4.71459 3.52291 4.96954 3.73525 5.18151C3.94722 5.39384 4.20216 5.50001 4.50008 5.50001ZM4.50008 10.9167C3.04661 9.67987 1.96111 8.531 1.24358 7.47005C0.525692 6.40947 0.166748 5.42779 0.166748 4.52501C0.166748 3.17084 0.602429 2.09202 1.47379 1.28855C2.34479 0.48508 3.35355 0.0833435 4.50008 0.0833435C5.64661 0.0833435 6.65537 0.48508 7.52637 1.28855C8.39773 2.09202 8.83342 3.17084 8.83342 4.52501C8.83342 5.42779 8.47465 6.40947 7.75712 7.47005C7.03923 8.531 5.95355 9.67987 4.50008 10.9167Z" fill="#9997FC"/>
</svg>
