<svg width="33" height="33" viewBox="0 0 33 33" fill="none" xmlns="http://www.w3.org/2000/svg">
<path d="M33 16.5C33 25.6127 25.6127 33 16.5 33C7.3873 33 0 25.6127 0 16.5C0 7.3873 7.3873 0 16.5 0C25.6127 0 33 7.3873 33 16.5ZM3.83587 16.5C3.83587 23.4942 9.5058 29.1641 16.5 29.1641C23.4942 29.1641 29.1641 23.4942 29.1641 16.5C29.1641 9.5058 23.4942 3.83587 16.5 3.83587C9.5058 3.83587 3.83587 9.5058 3.83587 16.5Z" fill="white"/>
<path d="M33 16.5C33 25.6127 25.6127 33 16.5 33C7.3873 33 0 25.6127 0 16.5C0 7.3873 7.3873 0 16.5 0C25.6127 0 33 7.3873 33 16.5ZM3.83587 16.5C3.83587 23.4942 9.5058 29.1641 16.5 29.1641C23.4942 29.1641 29.1641 23.4942 29.1641 16.5C29.1641 9.5058 23.4942 3.83587 16.5 3.83587C9.5058 3.83587 3.83587 9.5058 3.83587 16.5Z" fill="white"/>
<path d="M33 16.5C33 25.6127 25.6127 33 16.5 33C7.3873 33 0 25.6127 0 16.5C0 7.3873 7.3873 0 16.5 0C25.6127 0 33 7.3873 33 16.5ZM3.83587 16.5C3.83587 23.4942 9.5058 29.1641 16.5 29.1641C23.4942 29.1641 29.1641 23.4942 29.1641 16.5C29.1641 9.5058 23.4942 3.83587 16.5 3.83587C9.5058 3.83587 3.83587 9.5058 3.83587 16.5Z" fill="#4945DB"/>
</svg>
