<svg width="24" height="24" viewBox="0 0 24 24" fill="none" xmlns="http://www.w3.org/2000/svg">
<mask id="mask0_66_2460" style="mask-type:alpha" maskUnits="userSpaceOnUse" x="0" y="0" width="24" height="24">
<rect width="24" height="24" fill="white"/>
</mask>
<g mask="url(#mask0_66_2460)">
<path d="M9 8H15V6C15 5.16667 14.7083 4.45833 14.125 3.875C13.5417 3.29167 12.8333 3 12 3C11.1667 3 10.4583 3.29167 9.875 3.875C9.29167 4.45833 9 5.16667 9 6V8ZM18 23C16.6167 23 15.4377 22.5127 14.463 21.538C13.4877 20.5627 13 19.3833 13 18C13 16.6167 13.4877 15.4373 14.463 14.462C15.4377 13.4873 16.6167 13 18 13C19.3833 13 20.5627 13.4873 21.538 14.462C22.5127 15.4373 23 16.6167 23 18C23 19.3833 22.5127 20.5627 21.538 21.538C20.5627 22.5127 19.3833 23 18 23ZM12.25 22H6C5.45 22 4.97933 21.8043 4.588 21.413C4.196 21.021 4 20.55 4 20V10C4 9.45 4.196 8.979 4.588 8.587C4.97933 8.19567 5.45 8 6 8H7V6C7 4.61667 7.48767 3.43733 8.463 2.462C9.43767 1.48733 10.6167 1 12 1C13.3833 1 14.5627 1.48733 15.538 2.462C16.5127 3.43733 17 4.61667 17 6V8H18C18.55 8 19.021 8.19567 19.413 8.587C19.8043 8.979 20 9.45 20 10V11.3C19.6667 11.1833 19.3333 11.104 19 11.062C18.6667 11.0207 18.3333 11 18 11C16.05 11 14.396 11.679 13.038 13.037C11.6793 14.3957 11 16.05 11 18C11 18.7167 11.1127 19.4123 11.338 20.087C11.5627 20.7623 11.8667 21.4 12.25 22Z" fill="white"/>
<path d="M16.3334 21L14.1277 18.7447L14.9444 18L16.3334 19.5106L20.1834 16L21 16.7447L16.3334 21Z" fill="#69B935"/>
</g>
</svg>
