<svg width="422" height="140" viewBox="0 0 422 140" fill="none" xmlns="http://www.w3.org/2000/svg">
<g clip-path="url(#clip0_0_1)">
<path d="M184.927 34.1595C176.926 34.1595 170.356 40.6646 170.356 48.6658C170.356 48.926 170.356 49.1862 170.356 49.4464H173.478C173.478 49.1862 173.478 48.926 173.478 48.6658C173.478 42.3559 178.617 37.2819 184.862 37.2819C191.172 37.2819 196.246 42.4209 196.246 48.6658C196.246 54.9758 191.107 60.0498 184.862 60.0498C184.797 60.0498 184.732 60.0498 184.667 60.0498C186.489 60.8954 188.44 61.3508 190.457 61.3508C191.042 61.3508 191.562 61.2857 192.148 61.2207C196.506 58.6837 199.434 54 199.434 48.6008C199.434 40.6646 192.929 34.1595 184.927 34.1595Z" fill="#69B935"/>
<path d="M181.935 42.8112C181.74 42.9413 181.545 43.0064 181.284 43.0064C180.829 43.0064 180.439 42.7462 180.179 42.3559C179.853 41.7704 180.048 40.9898 180.634 40.5995C183.236 39.1684 186.293 39.1033 188.895 40.4694C189.546 40.7947 189.741 41.5753 189.416 42.2258C189.091 42.8763 188.31 43.0714 187.659 42.7462C185.903 41.7054 183.756 41.7704 181.935 42.8112Z" fill="#69B935"/>
<path d="M190.522 43.1365C191.107 42.7462 191.888 42.9413 192.278 43.5918C192.343 43.6569 192.408 43.787 192.408 43.852C192.733 44.4375 192.538 45.2181 191.953 45.6084C191.758 45.7385 191.562 45.8036 191.302 45.8036C190.847 45.8036 190.392 45.5434 190.196 45.1531C190.131 45.088 190.131 45.023 190.066 44.9579C189.741 44.3074 189.936 43.5268 190.522 43.1365Z" fill="#69B935"/>
<path d="M159.362 3.2602C161.184 2.47959 163.2 3.32526 163.981 5.08163L167.233 12.6926C168.014 14.514 167.168 16.5306 165.412 17.3112C164.631 17.6365 163.786 17.7015 163.005 17.4413C162.029 17.1811 161.184 16.4656 160.793 15.4247L157.541 7.81378C156.695 6.12245 157.541 4.04082 159.362 3.2602Z" fill="white"/>
<path d="M134.122 6.96811C135.423 5.53699 137.7 5.47194 139.131 6.77296L153.703 21.1492C155.134 22.4503 155.199 24.727 153.898 26.1582C152.987 27.1339 151.686 27.4592 150.515 27.199C149.93 27.0689 149.344 26.8087 148.889 26.3533L134.318 11.977C132.886 10.676 132.821 8.39923 134.122 6.96811Z" fill="white"/>
<path d="M134.643 32.0778L142.904 32.273C144.856 32.338 146.417 33.9643 146.352 35.9158C146.287 37.6722 144.986 39.0383 143.36 39.2985C143.165 39.2985 142.969 39.3635 142.709 39.3635L134.448 39.1684C132.496 39.1033 130.935 37.4771 131 35.5255C131.065 33.574 132.691 32.0778 134.643 32.0778Z" fill="white"/>
<path d="M161.834 63.7577C160.598 63.7577 159.362 63.1071 158.712 61.8712C156.435 57.6429 155.264 52.8941 155.264 48.0804C155.264 32.0128 168.339 18.9375 184.407 18.9375C200.474 18.9375 213.55 32.0128 213.55 48.0804C213.55 50.0319 211.989 51.5931 210.037 51.5931C208.085 51.5931 206.524 50.0319 206.524 48.0804C206.524 35.9158 196.636 26.0281 184.472 26.0281C172.307 26.0281 162.29 35.9809 162.29 48.1454C162.29 51.7883 163.2 55.3661 164.892 58.5536C165.802 60.2449 165.152 62.3916 163.46 63.3023C162.94 63.6275 162.355 63.7577 161.834 63.7577Z" fill="#69B935"/>
<path d="M183.171 101.422C183.106 101.422 183.041 101.422 182.976 101.422C180.569 101.357 178.422 99.9911 177.381 97.9094L158.321 61.2207C157.411 59.4643 158.126 57.3826 159.818 56.4719C161.574 55.5612 163.656 56.2768 164.566 57.9681L183.106 93.7462L194.099 75.0115C195.075 73.3201 197.222 72.7347 198.913 73.7755C200.605 74.7513 201.19 76.8979 200.149 78.5893L188.635 98.1696C187.594 100.186 185.448 101.422 183.171 101.422Z" fill="#69B935"/>
<path d="M213.485 48.5357C213.094 60.4401 202.231 69.2219 190.652 68.6365C182.716 68.3763 174.844 63.5625 171.852 56.1467C170.876 53.7398 170.291 51.1378 170.486 48.5357C170.551 47.4949 171.332 46.8444 171.852 46.8444C172.698 46.8444 173.478 47.6901 173.478 48.6658C173.478 53.2844 176.21 57.4477 179.723 60.31C186.489 65.9043 195.921 65.5791 202.101 59.3342C204.963 56.537 206.654 52.5689 206.394 48.6008C206.264 46.6492 207.76 44.9579 209.712 44.8929C211.858 44.6977 213.615 46.4541 213.485 48.5357Z" fill="white"/>
<path d="M247.181 71.6939C245.034 71.6939 243.278 73.4503 243.278 75.5969C243.278 77.7436 245.034 79.5 247.181 79.5C249.328 79.5 251.084 77.7436 251.084 75.5969C251.084 73.4503 249.328 71.6939 247.181 71.6939Z" fill="white"/>
<path d="M227.731 71.6939C225.584 71.6939 223.828 73.4503 223.828 75.5969C223.828 77.7436 225.584 79.5 227.731 79.5C229.878 79.5 231.634 77.7436 231.634 75.5969C231.634 73.4503 229.943 71.6939 227.731 71.6939Z" fill="white"/>
<path d="M237.879 101.162C236.838 101.162 235.927 102.008 235.927 103.114C235.927 104.154 236.773 105.065 237.879 105.065C238.92 105.065 239.83 104.219 239.83 103.114C239.83 102.008 238.92 101.162 237.879 101.162Z" fill="white"/>
<path d="M208.671 100.381C207.63 100.381 206.719 101.227 206.719 102.333C206.719 103.439 207.565 104.284 208.671 104.284C209.712 104.284 210.622 103.439 210.622 102.333C210.622 101.227 209.712 100.381 208.671 100.381Z" fill="white"/>
<path d="M226.3 100.381C225.259 100.381 224.348 101.227 224.348 102.333C224.348 103.439 225.194 104.284 226.3 104.284C227.341 104.284 228.251 103.439 228.251 102.333C228.251 101.227 227.341 100.381 226.3 100.381Z" fill="white"/>
<path d="M222.136 100.381C221.096 100.381 220.185 101.227 220.185 102.333C220.185 103.439 221.031 104.284 222.136 104.284C223.177 104.284 224.088 103.439 224.088 102.333C224.088 101.227 223.177 100.381 222.136 100.381Z" fill="white"/>
<path d="M218.624 71.6939C216.477 71.6939 214.721 73.4503 214.721 75.5969C214.721 77.7436 216.477 79.5 218.624 79.5C220.77 79.5 222.527 77.7436 222.527 75.5969C222.527 73.4503 220.77 71.6939 218.624 71.6939Z" fill="white"/>
<path d="M184.407 71.6939C182.26 71.6939 180.504 73.4503 180.504 75.5969C180.504 77.7436 182.26 79.5 184.407 79.5C186.554 79.5 188.31 77.7436 188.31 75.5969C188.245 73.4503 186.554 71.6939 184.407 71.6939Z" fill="white"/>
<path d="M242.497 86.8508V89.648C242.497 92.185 240.416 94.2666 237.879 94.2666C235.342 94.2666 233.26 92.185 233.26 89.648V86.8508H228.642V89.648C228.642 94.7219 232.805 98.8852 237.879 98.8852C242.953 98.8852 247.116 94.7219 247.116 89.648V86.8508H242.497Z" fill="#69B935"/>
<path d="M228.381 86.8508V89.648C228.381 92.185 226.3 94.2666 223.763 94.2666C221.226 94.2666 219.144 92.185 219.144 89.648V86.8508H214.526V89.648C214.526 94.7219 218.689 98.8852 223.763 98.8852C228.837 98.8852 233 94.7219 233 89.648V86.8508H228.381Z" fill="#69B935"/>
<path d="M214.46 86.8508V89.648C214.46 92.185 212.379 94.2666 209.842 94.2666C207.305 94.2666 205.223 92.185 205.223 89.648V86.8508H200.605V89.648C200.605 94.7219 204.768 98.8852 209.842 98.8852C214.916 98.8852 219.079 94.7219 219.079 89.648V86.8508H214.46Z" fill="#69B935"/>
<path d="M253.101 69.5472C243.278 69.5472 235.277 61.5459 235.277 51.7232V48.6658C235.277 46.7143 236.838 45.1531 238.79 45.1531C240.741 45.1531 242.302 46.7143 242.302 48.6658V51.7232C242.302 57.6429 247.116 62.4566 253.036 62.4566C258.955 62.4566 263.769 57.6429 263.769 51.7232V48.6658C263.769 46.7143 265.33 45.1531 267.282 45.1531C269.233 45.1531 270.795 46.7143 270.795 48.6658V51.7232C270.925 61.5459 262.923 69.5472 253.101 69.5472Z" fill="white"/>
<path d="M224.283 69.5472C214.46 69.5472 206.459 61.5459 206.459 51.7232V48.6658C206.459 46.7143 208.02 45.1531 209.972 45.1531C211.923 45.1531 213.485 46.7143 213.485 48.6658V51.7232C213.485 57.6429 218.298 62.4566 224.218 62.4566C230.138 62.4566 234.952 57.6429 234.952 51.7232V48.6658C234.952 46.7143 236.513 45.1531 238.464 45.1531C240.416 45.1531 241.977 46.7143 241.977 48.6658V51.7232C242.107 61.5459 234.106 69.5472 224.283 69.5472Z" fill="white"/>
<path d="M258.37 99.5357C254.662 99.5357 251.605 96.5434 251.605 92.7704V78.3941H256.809V92.7704C256.809 93.6161 257.524 94.3316 258.37 94.3316C259.216 94.3316 259.931 93.6161 259.931 92.7704V78.3941H265.135V92.7704C265.07 96.5434 262.078 99.5357 258.37 99.5357Z" fill="#69B935"/>
<path d="M273.071 78.3941H267.867V98.8202H273.071V78.3941Z" fill="#69B935"/>
</g>
<path d="M43 93.5C43 105.374 33.3741 115 21.5 115C9.62588 115 0 105.374 0 93.5C0 81.6259 9.62588 72 21.5 72C33.3741 72 43 81.6259 43 93.5ZM4.99826 93.5C4.99826 102.614 12.3863 110.002 21.5 110.002C30.6137 110.002 38.0017 102.614 38.0017 93.5C38.0017 84.3863 30.6137 76.9983 21.5 76.9983C12.3863 76.9983 4.99826 84.3863 4.99826 93.5Z" fill="white"/>
<path d="M43 93.5C43 105.374 33.3741 115 21.5 115C9.62588 115 0 105.374 0 93.5C0 81.6259 9.62588 72 21.5 72C33.3741 72 43 81.6259 43 93.5ZM4.99826 93.5C4.99826 102.614 12.3863 110.002 21.5 110.002C30.6137 110.002 38.0017 102.614 38.0017 93.5C38.0017 84.3863 30.6137 76.9983 21.5 76.9983C12.3863 76.9983 4.99826 84.3863 4.99826 93.5Z" fill="white"/>
<path d="M43 93.5C43 105.374 33.3741 115 21.5 115C9.62588 115 0 105.374 0 93.5C0 81.6259 9.62588 72 21.5 72C33.3741 72 43 81.6259 43 93.5ZM4.99826 93.5C4.99826 102.614 12.3863 110.002 21.5 110.002C30.6137 110.002 38.0017 102.614 38.0017 93.5C38.0017 84.3863 30.6137 76.9983 21.5 76.9983C12.3863 76.9983 4.99826 84.3863 4.99826 93.5Z" fill="white"/>
<path d="M442 40C442 62.0914 424.091 80 402 80C379.909 80 362 62.0914 362 40C362 17.9086 379.909 0 402 0C424.091 0 442 17.9086 442 40ZM371.299 40C371.299 56.9556 385.044 70.7009 402 70.7009C418.956 70.7009 432.701 56.9556 432.701 40C432.701 23.0444 418.956 9.29909 402 9.29909C385.044 9.29909 371.299 23.0444 371.299 40Z" fill="white"/>
<path d="M442 40C442 62.0914 424.091 80 402 80C379.909 80 362 62.0914 362 40C362 17.9086 379.909 0 402 0C424.091 0 442 17.9086 442 40ZM371.299 40C371.299 56.9556 385.044 70.7009 402 70.7009C418.956 70.7009 432.701 56.9556 432.701 40C432.701 23.0444 418.956 9.29909 402 9.29909C385.044 9.29909 371.299 23.0444 371.299 40Z" fill="white"/>
<path d="M442 40C442 62.0914 424.091 80 402 80C379.909 80 362 62.0914 362 40C362 17.9086 379.909 0 402 0C424.091 0 442 17.9086 442 40ZM371.299 40C371.299 56.9556 385.044 70.7009 402 70.7009C418.956 70.7009 432.701 56.9556 432.701 40C432.701 23.0444 418.956 9.29909 402 9.29909C385.044 9.29909 371.299 23.0444 371.299 40Z" fill="#4945DB"/>
<path d="M364 126.5C364 133.956 357.956 140 350.5 140C343.044 140 337 133.956 337 126.5C337 119.044 343.044 113 350.5 113C357.956 113 364 119.044 364 126.5ZM340.138 126.5C340.138 132.223 344.777 136.862 350.5 136.862C356.223 136.862 360.862 132.223 360.862 126.5C360.862 120.777 356.223 116.138 350.5 116.138C344.777 116.138 340.138 120.777 340.138 126.5Z" fill="white"/>
<path d="M364 126.5C364 133.956 357.956 140 350.5 140C343.044 140 337 133.956 337 126.5C337 119.044 343.044 113 350.5 113C357.956 113 364 119.044 364 126.5ZM340.138 126.5C340.138 132.223 344.777 136.862 350.5 136.862C356.223 136.862 360.862 132.223 360.862 126.5C360.862 120.777 356.223 116.138 350.5 116.138C344.777 116.138 340.138 120.777 340.138 126.5Z" fill="white"/>
<path d="M364 126.5C364 133.956 357.956 140 350.5 140C343.044 140 337 133.956 337 126.5C337 119.044 343.044 113 350.5 113C357.956 113 364 119.044 364 126.5ZM340.138 126.5C340.138 132.223 344.777 136.862 350.5 136.862C356.223 136.862 360.862 132.223 360.862 126.5C360.862 120.777 356.223 116.138 350.5 116.138C344.777 116.138 340.138 120.777 340.138 126.5Z" fill="white"/>
<defs>
<clipPath id="clip0_0_1">
<rect width="142.006" height="102" fill="white" transform="translate(131 3)"/>
</clipPath>
</defs>
</svg>
