<svg width="39" height="50" viewBox="0 0 39 50" fill="none" xmlns="http://www.w3.org/2000/svg">
<path d="M14.2872 6.84547C9.05839 6.84547 4.05688 9.46233 0.971532 13.8573C0.451895 14.5954 0.614281 15.6019 1.32878 16.1051C2.04328 16.6419 3.0176 16.4742 3.50476 15.7361C6.00552 12.2134 10.0327 10.0998 14.2872 10.0998C21.6596 10.0998 27.6354 16.3064 27.6354 23.8886C27.6354 27.1429 26.8235 29.6591 24.9073 32.2424C23.3159 34.4231 17.7298 41.2336 14.9368 44.6221L10.5199 34.1212C12.1437 34.7586 13.93 34.9934 15.7487 34.7586C19.1588 34.2554 21.9844 32.1417 23.5433 29.2565C24.6475 27.2435 25.1347 24.828 24.8099 22.3789C23.998 16.3735 18.6392 12.1798 12.8258 13.0186C7.01231 13.8573 2.95265 19.393 3.76458 25.3983C3.95945 26.7738 4.38165 28.0823 4.99872 29.2229L13.0531 48.3126C13.2804 48.8158 13.7351 49.1848 14.2548 49.2519C14.3197 49.2519 14.4171 49.2855 14.4821 49.2855C14.9368 49.2855 15.359 49.0842 15.6838 48.7152C16.0735 48.2455 25.1996 37.2077 27.4081 34.2218C29.7464 31.0682 30.7857 27.881 30.7857 23.8886C30.7857 14.4947 23.3809 6.84547 14.2872 6.84547ZM7.82425 27.7803C7.75929 27.6461 7.72682 27.5455 7.66186 27.4448C7.27213 26.6732 7.01231 25.8344 6.88241 24.9286C6.65506 23.2511 6.94736 21.5737 7.75929 20.0975C7.92168 19.7955 8.11654 19.4936 8.31141 19.2252C9.51307 17.5813 11.2668 16.5077 13.248 16.2393C15.2291 15.9709 17.2102 16.4742 18.8016 17.749C20.393 18.9904 21.4322 20.802 21.6921 22.8485C21.9519 24.8951 21.4647 26.9416 20.2306 28.5855C19.0289 30.2294 17.2751 31.303 15.294 31.5714C12.2087 32.0075 9.28573 30.3972 7.82425 27.7803Z" fill="#3F3CC7"/>
<path d="M15.9967 20.476C16.114 20.5159 16.2314 20.5358 16.3487 20.5358C16.6128 20.5358 16.8475 20.4361 16.9942 20.2765C17.1996 20.0372 17.0822 19.738 16.7302 19.5984C15.2632 19.0399 13.5028 19.02 12.0064 19.5585C11.6543 19.6782 11.5076 19.9773 11.713 20.2366C11.8891 20.476 12.3292 20.5757 12.7106 20.4361C13.7081 20.0771 14.9698 20.0771 15.9967 20.476Z" fill="#3F3CC7"/>
<path d="M10.9864 20.7141C10.3618 20.3557 9.5811 20.5605 9.21677 21.1237C9.16472 21.226 9.11267 21.2772 9.06062 21.3796C8.69629 21.994 8.90448 22.7619 9.52906 23.1203C9.73725 23.2227 9.94544 23.2739 10.1536 23.2739C10.6221 23.2739 11.0384 23.0179 11.2987 22.6083C11.3507 22.5571 11.3507 22.5059 11.4028 22.4547C11.8192 21.8916 11.611 21.1237 10.9864 20.7141Z" fill="#3F3CC7"/>
<path d="M3.87415 32.4939C3.49526 31.6646 2.53081 31.25 1.6697 31.6301C0.843028 32.0102 0.429692 32.9776 0.808583 33.8413L7.07751 48.2835C7.35306 48.9054 7.97307 49.2855 8.59307 49.2855C8.79974 49.2855 9.04085 49.2509 9.24752 49.1473C10.0742 48.7672 10.4875 47.7998 10.1086 46.936L3.87415 32.4939Z" fill="#69B935"/>
<path d="M25.8418 0.140885C25.1126 -0.235301 24.2958 0.175084 24.0041 0.995855L22.6914 4.55253C22.3706 5.4075 22.7206 6.36507 23.4207 6.70705C23.7416 6.87805 24.0624 6.87805 24.3833 6.77545C24.7625 6.63866 25.1126 6.29667 25.2584 5.85208L26.5711 2.29541C26.8628 1.47464 26.5419 0.482873 25.8418 0.140885Z" fill="#69B935"/>
<path d="M38.5216 1.87003C37.8537 1.24782 36.7035 1.18232 35.9986 1.80454L28.6151 8.22318C27.9102 8.81265 27.836 9.82784 28.5409 10.4501C28.9862 10.8758 29.654 11.0395 30.2477 10.9085C30.5445 10.843 30.8413 10.712 31.0639 10.5156L38.4474 4.09691C39.1523 3.50744 39.1894 2.49225 38.5216 1.87003Z" fill="#69B935"/>
<path d="M37.3945 13.6916L33.6947 13.7737C32.8107 13.8011 32.1232 14.4032 32.1559 15.1423C32.1886 15.7992 32.7452 16.3192 33.4983 16.4013C33.5965 16.4013 33.6947 16.4287 33.7602 16.4287L37.46 16.3466C38.344 16.3192 39.0316 15.717 38.9988 14.978C38.9661 14.239 38.2458 13.6642 37.3945 13.6916Z" fill="#69B935"/>
</svg>
