<svg width="62" height="62" viewBox="0 0 62 62" fill="none" xmlns="http://www.w3.org/2000/svg">
<g filter="url(#filter0_f_554_39839)">
<path d="M51 32C51 42.3143 42.3143 51 32 51C21.6857 51 13 42.3143 13 32C13 21.6857 21.6857 13 32 13C42.3143 13 51 21.6857 51 32Z" fill="url(#paint0_radial_554_39839)"/>
</g>
<g filter="url(#filter1_f_554_39839)">
<ellipse cx="31.0017" cy="31" rx="1.25002" ry="25.0004" fill="url(#paint1_radial_554_39839)"/>
<ellipse cx="31.0018" cy="31" rx="1.25002" ry="25.0004" transform="rotate(12.6353 31.0018 31)" fill="url(#paint2_radial_554_39839)"/>
<ellipse cx="31.0019" cy="31" rx="1.25002" ry="25.0004" transform="rotate(23.5997 31.0019 31)" fill="url(#paint3_radial_554_39839)"/>
<ellipse cx="31.0019" cy="31" rx="1.25002" ry="25.0004" transform="rotate(33.6855 31.0019 31)" fill="url(#paint4_radial_554_39839)"/>
<ellipse cx="31.0017" cy="30.9998" rx="1.25002" ry="25.0004" transform="rotate(44.6771 31.0017 30.9998)" fill="url(#paint5_radial_554_39839)"/>
<ellipse cx="31.0017" cy="30.9998" rx="1.25002" ry="25.0004" transform="rotate(57.3124 31.0017 30.9998)" fill="url(#paint6_radial_554_39839)"/>
<ellipse cx="31.0021" cy="30.9999" rx="1.25002" ry="25.0004" transform="rotate(68.2768 31.0021 30.9999)" fill="url(#paint7_radial_554_39839)"/>
<ellipse cx="31.002" cy="30.9999" rx="1.25002" ry="25.0004" transform="rotate(78.3626 31.002 30.9999)" fill="url(#paint8_radial_554_39839)"/>
<ellipse cx="31.002" cy="30.9997" rx="1.25002" ry="25.0004" transform="rotate(89.8812 31.002 30.9997)" fill="url(#paint9_radial_554_39839)"/>
<ellipse cx="31.0023" cy="30.9998" rx="1.25002" ry="25.0004" transform="rotate(102.516 31.0023 30.9998)" fill="url(#paint10_radial_554_39839)"/>
<ellipse cx="31.0019" cy="30.9998" rx="1.25002" ry="25.0004" transform="rotate(113.481 31.0019 30.9998)" fill="url(#paint11_radial_554_39839)"/>
<ellipse cx="31.0021" cy="30.9999" rx="1.25002" ry="25.0004" transform="rotate(123.567 31.0021 30.9999)" fill="url(#paint12_radial_554_39839)"/>
<ellipse cx="31.0024" cy="30.9998" rx="1.25002" ry="25.0004" transform="rotate(136.014 31.0024 30.9998)" fill="url(#paint13_radial_554_39839)"/>
<ellipse cx="31.002" cy="30.9998" rx="1.25002" ry="25.0004" transform="rotate(148.649 31.002 30.9998)" fill="url(#paint14_radial_554_39839)"/>
<ellipse cx="31.0024" cy="30.9998" rx="1.25002" ry="25.0004" transform="rotate(159.614 31.0024 30.9998)" fill="url(#paint15_radial_554_39839)"/>
<ellipse cx="31.0024" cy="30.9999" rx="1.25002" ry="25.0004" transform="rotate(169.699 31.0024 30.9999)" fill="url(#paint16_radial_554_39839)"/>
</g>
<g style="mix-blend-mode:screen" filter="url(#filter2_f_554_39839)">
<ellipse cx="31.0019" cy="31" rx="1.49975" ry="29.9949" fill="url(#paint17_radial_554_39839)"/>
<ellipse cx="31.0018" cy="31" rx="1.49975" ry="29.9949" transform="rotate(12.6353 31.0018 31)" fill="url(#paint18_radial_554_39839)"/>
<ellipse cx="31.002" cy="31" rx="1.49975" ry="29.9949" transform="rotate(23.5997 31.002 31)" fill="url(#paint19_radial_554_39839)"/>
<ellipse cx="31.0021" cy="31" rx="1.49975" ry="29.9949" transform="rotate(33.6855 31.0021 31)" fill="url(#paint20_radial_554_39839)"/>
<ellipse cx="31.0018" cy="30.9997" rx="1.49975" ry="29.9949" transform="rotate(44.6771 31.0018 30.9997)" fill="url(#paint21_radial_554_39839)"/>
<ellipse cx="31.0019" cy="30.9998" rx="1.49975" ry="29.9949" transform="rotate(57.3124 31.0019 30.9998)" fill="url(#paint22_radial_554_39839)"/>
<ellipse cx="31.0023" cy="30.9998" rx="1.49975" ry="29.9949" transform="rotate(68.2768 31.0023 30.9998)" fill="url(#paint23_radial_554_39839)"/>
<ellipse cx="31.0018" cy="30.9999" rx="1.49975" ry="29.9949" transform="rotate(78.3626 31.0018 30.9999)" fill="url(#paint24_radial_554_39839)"/>
<ellipse cx="31.0021" cy="30.9996" rx="1.49975" ry="29.9949" transform="rotate(89.8812 31.0021 30.9996)" fill="url(#paint25_radial_554_39839)"/>
<ellipse cx="31.0023" cy="30.9997" rx="1.49975" ry="29.9949" transform="rotate(102.516 31.0023 30.9997)" fill="url(#paint26_radial_554_39839)"/>
<ellipse cx="31.0021" cy="30.9997" rx="1.49975" ry="29.9949" transform="rotate(113.481 31.0021 30.9997)" fill="url(#paint27_radial_554_39839)"/>
<ellipse cx="31.0022" cy="30.9999" rx="1.49975" ry="29.9949" transform="rotate(123.567 31.0022 30.9999)" fill="url(#paint28_radial_554_39839)"/>
<ellipse cx="31.0025" cy="30.9997" rx="1.49975" ry="29.9949" transform="rotate(136.014 31.0025 30.9997)" fill="url(#paint29_radial_554_39839)"/>
<ellipse cx="31.0025" cy="30.9998" rx="1.49975" ry="29.9949" transform="rotate(148.649 31.0025 30.9998)" fill="url(#paint30_radial_554_39839)"/>
<ellipse cx="31.0024" cy="30.9998" rx="1.49975" ry="29.9949" transform="rotate(159.614 31.0024 30.9998)" fill="url(#paint31_radial_554_39839)"/>
<ellipse cx="31.0025" cy="30.9999" rx="1.49975" ry="29.9949" transform="rotate(169.699 31.0025 30.9999)" fill="url(#paint32_radial_554_39839)"/>
</g>
<path opacity="0.047619" d="M49.7499 31.8146C49.7499 41.5901 41.6037 49.7363 31.8282 49.7363C21.6455 49.7363 13.4993 41.5901 13.4993 31.8146C13.4993 21.6319 21.6455 13.4857 31.8282 13.4857C41.6037 13.4857 49.7499 21.6319 49.7499 31.8146Z" fill="url(#paint33_radial_554_39839)"/>
<path opacity="0.0952381" d="M49.3426 31.8146C49.3426 41.5901 41.1964 49.7363 31.4209 49.7363C21.6455 49.7363 13.4993 41.5901 13.4993 31.8146C13.4993 22.0392 21.6455 13.8929 31.4209 13.8929C41.6037 13.8929 49.3426 21.6318 49.3426 31.8146Z" fill="url(#paint34_radial_554_39839)"/>
<path opacity="0.1429" d="M49.3424 31.8146C49.3424 41.5901 41.6035 49.329 31.8281 49.329C22.0526 49.329 14.3137 41.5901 14.3137 31.8146C14.3137 22.0392 22.0526 14.3003 31.8281 14.3003C41.6035 13.893 49.3424 22.0392 49.3424 31.8146Z" fill="url(#paint35_radial_554_39839)"/>
<path opacity="0.1905" d="M48.9357 31.8146C48.9357 41.5901 41.1968 49.329 31.4213 49.329C21.6459 49.329 13.907 41.5901 13.907 31.8146C13.907 22.0392 21.6459 14.3003 31.4213 14.3003C41.1968 14.3003 48.9357 22.0392 48.9357 31.8146Z" fill="url(#paint36_radial_554_39839)"/>
<path opacity="0.2381" d="M48.9355 31.4073C48.9355 40.7755 41.1966 48.5144 31.8285 48.5144C22.4603 48.5144 14.7214 40.7755 14.7214 31.4073C14.7214 22.0392 22.4603 14.3003 31.8285 14.3003C41.1966 14.3003 48.9355 22.0392 48.9355 31.4073Z" fill="url(#paint37_radial_554_39839)"/>
<path opacity="0.2857" d="M48.9355 31.4073C48.9355 40.7755 41.1966 48.5144 31.8285 48.5144C22.4603 48.5144 14.7214 40.7755 14.7214 31.4073C14.7214 22.0392 22.4603 14.3003 31.8285 14.3003C41.1966 14.7076 48.9355 22.0392 48.9355 31.4073Z" fill="url(#paint38_radial_554_39839)"/>
<path opacity="0.3333" d="M48.5274 31.4072C48.5274 40.7754 40.7885 48.107 31.8277 48.107C22.4595 48.107 15.1279 40.3681 15.1279 31.4072C15.1279 22.0391 22.8668 14.7075 31.8277 14.7075C41.1958 14.7075 48.5274 22.4464 48.5274 31.4072Z" fill="url(#paint39_radial_554_39839)"/>
<path opacity="0.381" d="M48.5274 31.4072C48.5274 40.7754 41.1958 48.107 31.8277 48.107C22.4595 48.107 15.1279 40.7754 15.1279 31.4072C15.1279 22.0391 22.4595 14.7075 31.8277 14.7075C40.7885 14.7075 48.5274 22.4464 48.5274 31.4072Z" fill="url(#paint40_radial_554_39839)"/>
<path opacity="0.4286" d="M48.1209 31.4072C48.1209 40.3681 40.7893 48.107 31.4212 48.107C22.4603 48.107 14.7214 40.7754 14.7214 31.4072C14.7214 22.4464 22.053 14.7075 31.4212 14.7075C40.7893 15.1148 48.1209 22.4464 48.1209 31.4072Z" fill="url(#paint41_radial_554_39839)"/>
<path opacity="0.4762" d="M48.121 31.4073C48.121 40.3681 40.7894 47.6997 31.8286 47.6997C22.8677 47.6997 15.5361 40.3681 15.5361 31.4073C15.5361 22.4465 22.8677 15.1149 31.8286 15.1149C40.7894 15.1149 48.121 22.4465 48.121 31.4073Z" fill="url(#paint42_radial_554_39839)"/>
<path opacity="0.5238" d="M47.7128 31.4073C47.7128 40.3681 40.3812 47.6997 31.4203 47.6997C22.4595 47.6997 15.1279 40.3681 15.1279 31.4073C15.1279 22.4465 22.4595 15.1149 31.4203 15.1149C40.7885 15.5222 47.7128 22.4465 47.7128 31.4073Z" fill="url(#paint43_radial_554_39839)"/>
<path opacity="0.5714" d="M47.7136 31.4073C47.7136 40.3682 40.382 47.2924 31.8285 47.2924C22.8676 47.2924 15.9434 39.9608 15.9434 31.4073C15.9434 22.4465 23.2749 15.5222 31.8285 15.5222C40.382 15.5222 47.7136 22.8538 47.7136 31.4073Z" fill="url(#paint44_radial_554_39839)"/>
<path opacity="0.619" d="M47.3063 31.4073C47.3063 39.9608 40.3821 47.2924 31.4212 47.2924C22.8677 47.2924 15.5361 40.3682 15.5361 31.4073C15.5361 22.8538 22.4604 15.5222 31.4212 15.5222C40.3821 15.9295 47.3063 22.8538 47.3063 31.4073Z" fill="url(#paint45_radial_554_39839)"/>
<path opacity="0.6667" d="M47.3059 31.4073C47.3059 39.9609 40.3817 46.8851 31.8281 46.8851C23.2746 46.8851 16.3503 39.9609 16.3503 31.4073C16.3503 22.8538 23.2746 15.9295 31.8281 15.9295C40.3817 15.9295 47.3059 22.8538 47.3059 31.4073Z" fill="url(#paint46_radial_554_39839)"/>
<path opacity="0.7143" d="M46.899 31.4073C46.899 39.9609 39.9747 46.8851 31.4212 46.8851C22.8676 46.8851 15.9434 39.9609 15.9434 31.4073C15.9434 22.8538 22.8676 15.9295 31.4212 15.9295C40.382 15.9295 46.899 22.8538 46.899 31.4073Z" fill="url(#paint47_radial_554_39839)"/>
<path opacity="0.7619" d="M46.8985 31.4074C46.8985 39.9609 39.9743 46.4779 31.8281 46.4779C23.2745 46.4779 16.7576 39.5536 16.7576 31.4074C16.7576 22.8539 23.6818 16.3369 31.8281 16.3369C39.9743 16.3369 46.8985 23.2612 46.8985 31.4074Z" fill="url(#paint48_radial_554_39839)"/>
<path opacity="0.8095" d="M46.8985 31.4074C46.8985 39.5536 39.9743 46.4779 31.8281 46.4779C23.6818 46.4779 16.7576 39.5536 16.7576 31.4074C16.7576 23.2612 23.6818 16.3369 31.8281 16.3369C39.9743 16.3369 46.8985 23.2612 46.8985 31.4074Z" fill="url(#paint49_radial_554_39839)"/>
<path opacity="0.8571" d="M46.4913 31.4074C46.4913 39.5536 39.9743 46.4779 31.4208 46.4779C23.2746 46.4779 16.3503 39.9609 16.3503 31.4074C16.3503 23.2612 22.8673 16.3369 31.4208 16.3369C39.9743 16.7442 46.4913 23.2612 46.4913 31.4074Z" fill="url(#paint50_radial_554_39839)"/>
<path opacity="0.9048" d="M46.4909 31.4073C46.4909 39.5535 39.9739 46.0704 31.8277 46.0704C23.6815 46.0704 17.1646 39.5535 17.1646 31.4073C17.1646 23.261 23.6815 16.7441 31.8277 16.7441C39.9739 16.7441 46.4909 23.261 46.4909 31.4073Z" fill="url(#paint51_radial_554_39839)"/>
<path opacity="0.9524" d="M46.0836 31.4073C46.0836 39.5535 39.5666 46.0704 31.8277 46.0704C23.6815 46.0704 17.1646 39.5535 17.1646 31.4073C17.1646 23.261 23.6815 16.7441 31.8277 16.7441C39.5666 16.7441 46.0836 23.261 46.0836 31.4073Z" fill="url(#paint52_radial_554_39839)"/>
<path d="M46.084 31.4073C46.084 39.1462 39.567 45.6632 31.8281 45.6632C24.0892 45.6632 17.5723 39.1462 17.5723 31.4073C17.5723 23.6684 24.0892 17.1515 31.8281 17.1515C39.567 17.1515 46.084 23.6684 46.084 31.4073Z" fill="url(#paint53_radial_554_39839)"/>
<defs>
<filter id="filter0_f_554_39839" x="9" y="9" width="46" height="46" filterUnits="userSpaceOnUse" color-interpolation-filters="sRGB">
<feFlood flood-opacity="0" result="BackgroundImageFix"/>
<feBlend mode="normal" in="SourceGraphic" in2="BackgroundImageFix" result="shape"/>
<feGaussianBlur stdDeviation="2" result="effect1_foregroundBlur_554_39839"/>
</filter>
<filter id="filter1_f_554_39839" x="5.00171" y="4.99957" width="52.0007" height="52.0009" filterUnits="userSpaceOnUse" color-interpolation-filters="sRGB">
<feFlood flood-opacity="0" result="BackgroundImageFix"/>
<feBlend mode="normal" in="SourceGraphic" in2="BackgroundImageFix" result="shape"/>
<feGaussianBlur stdDeviation="0.5" result="effect1_foregroundBlur_554_39839"/>
</filter>
<filter id="filter2_f_554_39839" x="0.00732422" y="0.00506592" width="61.9897" height="61.9899" filterUnits="userSpaceOnUse" color-interpolation-filters="sRGB">
<feFlood flood-opacity="0" result="BackgroundImageFix"/>
<feBlend mode="normal" in="SourceGraphic" in2="BackgroundImageFix" result="shape"/>
<feGaussianBlur stdDeviation="0.5" result="effect1_foregroundBlur_554_39839"/>
</filter>
<radialGradient id="paint0_radial_554_39839" cx="0" cy="0" r="1" gradientUnits="userSpaceOnUse" gradientTransform="translate(31.2351 14.9157) scale(36.6863)">
<stop offset="0.1953" stop-color="#FFFF79"/>
<stop offset="0.4045" stop-color="#FFE642"/>
<stop offset="0.5501" stop-color="#FFD621"/>
<stop offset="0.6363" stop-color="#FFC618"/>
<stop offset="0.8233" stop-color="#FFA707"/>
<stop offset="0.9286" stop-color="#FF9C00"/>
</radialGradient>
<radialGradient id="paint1_radial_554_39839" cx="0" cy="0" r="1" gradientUnits="userSpaceOnUse" gradientTransform="translate(31.0017 31) rotate(90) scale(25.0004 1.25002)">
<stop stop-color="#FFD600"/>
<stop offset="0.4375" stop-color="#FFF5A7" stop-opacity="0.5625"/>
<stop offset="1" stop-color="#FFF73F" stop-opacity="0"/>
</radialGradient>
<radialGradient id="paint2_radial_554_39839" cx="0" cy="0" r="1" gradientUnits="userSpaceOnUse" gradientTransform="translate(31.0018 31) rotate(90) scale(25.0004 1.25002)">
<stop stop-color="#FFD600"/>
<stop offset="0.4375" stop-color="#FFF5A7" stop-opacity="0.5625"/>
<stop offset="1" stop-color="#FFF73F" stop-opacity="0"/>
</radialGradient>
<radialGradient id="paint3_radial_554_39839" cx="0" cy="0" r="1" gradientUnits="userSpaceOnUse" gradientTransform="translate(31.0019 31) rotate(90) scale(25.0004 1.25002)">
<stop stop-color="#FFD600"/>
<stop offset="0.4375" stop-color="#FFF5A7" stop-opacity="0.5625"/>
<stop offset="1" stop-color="#FFF73F" stop-opacity="0"/>
</radialGradient>
<radialGradient id="paint4_radial_554_39839" cx="0" cy="0" r="1" gradientUnits="userSpaceOnUse" gradientTransform="translate(31.0019 31) rotate(90) scale(25.0004 1.25002)">
<stop stop-color="#FFD600"/>
<stop offset="0.4375" stop-color="#FFF5A7" stop-opacity="0.5625"/>
<stop offset="1" stop-color="#FFF73F" stop-opacity="0"/>
</radialGradient>
<radialGradient id="paint5_radial_554_39839" cx="0" cy="0" r="1" gradientUnits="userSpaceOnUse" gradientTransform="translate(31.0017 30.9998) rotate(90) scale(25.0004 1.25002)">
<stop stop-color="#FFD600"/>
<stop offset="0.4375" stop-color="#FFF5A7" stop-opacity="0.5625"/>
<stop offset="1" stop-color="#FFF73F" stop-opacity="0"/>
</radialGradient>
<radialGradient id="paint6_radial_554_39839" cx="0" cy="0" r="1" gradientUnits="userSpaceOnUse" gradientTransform="translate(31.0017 30.9998) rotate(90) scale(25.0004 1.25002)">
<stop stop-color="#FFD600"/>
<stop offset="0.4375" stop-color="#FFF5A7" stop-opacity="0.5625"/>
<stop offset="1" stop-color="#FFF73F" stop-opacity="0"/>
</radialGradient>
<radialGradient id="paint7_radial_554_39839" cx="0" cy="0" r="1" gradientUnits="userSpaceOnUse" gradientTransform="translate(31.0021 30.9999) rotate(90) scale(25.0004 1.25002)">
<stop stop-color="#FFD600"/>
<stop offset="0.4375" stop-color="#FFF5A7" stop-opacity="0.5625"/>
<stop offset="1" stop-color="#FFF73F" stop-opacity="0"/>
</radialGradient>
<radialGradient id="paint8_radial_554_39839" cx="0" cy="0" r="1" gradientUnits="userSpaceOnUse" gradientTransform="translate(31.002 30.9999) rotate(90) scale(25.0004 1.25002)">
<stop stop-color="#FFD600"/>
<stop offset="0.4375" stop-color="#FFF5A7" stop-opacity="0.5625"/>
<stop offset="1" stop-color="#FFF73F" stop-opacity="0"/>
</radialGradient>
<radialGradient id="paint9_radial_554_39839" cx="0" cy="0" r="1" gradientUnits="userSpaceOnUse" gradientTransform="translate(31.002 30.9997) rotate(90) scale(25.0004 1.25002)">
<stop stop-color="#FFD600"/>
<stop offset="0.4375" stop-color="#FFF5A7" stop-opacity="0.5625"/>
<stop offset="1" stop-color="#FFF73F" stop-opacity="0"/>
</radialGradient>
<radialGradient id="paint10_radial_554_39839" cx="0" cy="0" r="1" gradientUnits="userSpaceOnUse" gradientTransform="translate(31.0023 30.9998) rotate(90) scale(25.0004 1.25002)">
<stop stop-color="#FFD600"/>
<stop offset="0.4375" stop-color="#FFF5A7" stop-opacity="0.5625"/>
<stop offset="1" stop-color="#FFF73F" stop-opacity="0"/>
</radialGradient>
<radialGradient id="paint11_radial_554_39839" cx="0" cy="0" r="1" gradientUnits="userSpaceOnUse" gradientTransform="translate(31.0019 30.9998) rotate(90) scale(25.0004 1.25002)">
<stop stop-color="#FFD600"/>
<stop offset="0.4375" stop-color="#FFF5A7" stop-opacity="0.5625"/>
<stop offset="1" stop-color="#FFF73F" stop-opacity="0"/>
</radialGradient>
<radialGradient id="paint12_radial_554_39839" cx="0" cy="0" r="1" gradientUnits="userSpaceOnUse" gradientTransform="translate(31.0021 30.9999) rotate(90) scale(25.0004 1.25002)">
<stop stop-color="#FFD600"/>
<stop offset="0.4375" stop-color="#FFF5A7" stop-opacity="0.5625"/>
<stop offset="1" stop-color="#FFF73F" stop-opacity="0"/>
</radialGradient>
<radialGradient id="paint13_radial_554_39839" cx="0" cy="0" r="1" gradientUnits="userSpaceOnUse" gradientTransform="translate(31.0024 30.9998) rotate(90) scale(25.0004 1.25002)">
<stop stop-color="#FFD600"/>
<stop offset="0.4375" stop-color="#FFF5A7" stop-opacity="0.5625"/>
<stop offset="1" stop-color="#FFF73F" stop-opacity="0"/>
</radialGradient>
<radialGradient id="paint14_radial_554_39839" cx="0" cy="0" r="1" gradientUnits="userSpaceOnUse" gradientTransform="translate(31.002 30.9998) rotate(90) scale(25.0004 1.25002)">
<stop stop-color="#FFD600"/>
<stop offset="0.4375" stop-color="#FFF5A7" stop-opacity="0.5625"/>
<stop offset="1" stop-color="#FFF73F" stop-opacity="0"/>
</radialGradient>
<radialGradient id="paint15_radial_554_39839" cx="0" cy="0" r="1" gradientUnits="userSpaceOnUse" gradientTransform="translate(31.0024 30.9998) rotate(90) scale(25.0004 1.25002)">
<stop stop-color="#FFD600"/>
<stop offset="0.4375" stop-color="#FFF5A7" stop-opacity="0.5625"/>
<stop offset="1" stop-color="#FFF73F" stop-opacity="0"/>
</radialGradient>
<radialGradient id="paint16_radial_554_39839" cx="0" cy="0" r="1" gradientUnits="userSpaceOnUse" gradientTransform="translate(31.0024 30.9999) rotate(90) scale(25.0004 1.25002)">
<stop stop-color="#FFD600"/>
<stop offset="0.4375" stop-color="#FFF5A7" stop-opacity="0.5625"/>
<stop offset="1" stop-color="#FFF73F" stop-opacity="0"/>
</radialGradient>
<radialGradient id="paint17_radial_554_39839" cx="0" cy="0" r="1" gradientUnits="userSpaceOnUse" gradientTransform="translate(31.0019 31) rotate(90) scale(29.9949 1.49975)">
<stop stop-color="#FFD600"/>
<stop offset="0.4375" stop-color="#FFF5A7" stop-opacity="0.5625"/>
<stop offset="1" stop-color="#FFF73F" stop-opacity="0"/>
</radialGradient>
<radialGradient id="paint18_radial_554_39839" cx="0" cy="0" r="1" gradientUnits="userSpaceOnUse" gradientTransform="translate(31.0018 31) rotate(90) scale(29.9949 1.49975)">
<stop stop-color="#FFD600"/>
<stop offset="0.4375" stop-color="#FFF5A7" stop-opacity="0.5625"/>
<stop offset="1" stop-color="#FFF73F" stop-opacity="0"/>
</radialGradient>
<radialGradient id="paint19_radial_554_39839" cx="0" cy="0" r="1" gradientUnits="userSpaceOnUse" gradientTransform="translate(31.002 31) rotate(90) scale(29.9949 1.49975)">
<stop stop-color="#FFD600"/>
<stop offset="0.4375" stop-color="#FFF5A7" stop-opacity="0.5625"/>
<stop offset="1" stop-color="#FFF73F" stop-opacity="0"/>
</radialGradient>
<radialGradient id="paint20_radial_554_39839" cx="0" cy="0" r="1" gradientUnits="userSpaceOnUse" gradientTransform="translate(31.0021 31) rotate(90) scale(29.9949 1.49975)">
<stop stop-color="#FFD600"/>
<stop offset="0.4375" stop-color="#FFF5A7" stop-opacity="0.5625"/>
<stop offset="1" stop-color="#FFF73F" stop-opacity="0"/>
</radialGradient>
<radialGradient id="paint21_radial_554_39839" cx="0" cy="0" r="1" gradientUnits="userSpaceOnUse" gradientTransform="translate(31.0018 30.9997) rotate(90) scale(29.9949 1.49975)">
<stop stop-color="#FFD600"/>
<stop offset="0.4375" stop-color="#FFF5A7" stop-opacity="0.5625"/>
<stop offset="1" stop-color="#FFF73F" stop-opacity="0"/>
</radialGradient>
<radialGradient id="paint22_radial_554_39839" cx="0" cy="0" r="1" gradientUnits="userSpaceOnUse" gradientTransform="translate(31.0019 30.9998) rotate(90) scale(29.9949 1.49975)">
<stop stop-color="#FFD600"/>
<stop offset="0.4375" stop-color="#FFF5A7" stop-opacity="0.5625"/>
<stop offset="1" stop-color="#FFF73F" stop-opacity="0"/>
</radialGradient>
<radialGradient id="paint23_radial_554_39839" cx="0" cy="0" r="1" gradientUnits="userSpaceOnUse" gradientTransform="translate(31.0023 30.9998) rotate(90) scale(29.9949 1.49975)">
<stop stop-color="#FFD600"/>
<stop offset="0.4375" stop-color="#FFF5A7" stop-opacity="0.5625"/>
<stop offset="1" stop-color="#FFF73F" stop-opacity="0"/>
</radialGradient>
<radialGradient id="paint24_radial_554_39839" cx="0" cy="0" r="1" gradientUnits="userSpaceOnUse" gradientTransform="translate(31.0018 30.9999) rotate(90) scale(29.9949 1.49975)">
<stop stop-color="#FFD600"/>
<stop offset="0.4375" stop-color="#FFF5A7" stop-opacity="0.5625"/>
<stop offset="1" stop-color="#FFF73F" stop-opacity="0"/>
</radialGradient>
<radialGradient id="paint25_radial_554_39839" cx="0" cy="0" r="1" gradientUnits="userSpaceOnUse" gradientTransform="translate(31.0021 30.9996) rotate(90) scale(29.9949 1.49975)">
<stop stop-color="#FFD600"/>
<stop offset="0.4375" stop-color="#FFF5A7" stop-opacity="0.5625"/>
<stop offset="1" stop-color="#FFF73F" stop-opacity="0"/>
</radialGradient>
<radialGradient id="paint26_radial_554_39839" cx="0" cy="0" r="1" gradientUnits="userSpaceOnUse" gradientTransform="translate(31.0023 30.9997) rotate(90) scale(29.9949 1.49975)">
<stop stop-color="#FFD600"/>
<stop offset="0.4375" stop-color="#FFF5A7" stop-opacity="0.5625"/>
<stop offset="1" stop-color="#FFF73F" stop-opacity="0"/>
</radialGradient>
<radialGradient id="paint27_radial_554_39839" cx="0" cy="0" r="1" gradientUnits="userSpaceOnUse" gradientTransform="translate(31.0021 30.9997) rotate(90) scale(29.9949 1.49975)">
<stop stop-color="#FFD600"/>
<stop offset="0.4375" stop-color="#FFF5A7" stop-opacity="0.5625"/>
<stop offset="1" stop-color="#FFF73F" stop-opacity="0"/>
</radialGradient>
<radialGradient id="paint28_radial_554_39839" cx="0" cy="0" r="1" gradientUnits="userSpaceOnUse" gradientTransform="translate(31.0022 30.9999) rotate(90) scale(29.9949 1.49975)">
<stop stop-color="#FFD600"/>
<stop offset="0.4375" stop-color="#FFF5A7" stop-opacity="0.5625"/>
<stop offset="1" stop-color="#FFF73F" stop-opacity="0"/>
</radialGradient>
<radialGradient id="paint29_radial_554_39839" cx="0" cy="0" r="1" gradientUnits="userSpaceOnUse" gradientTransform="translate(31.0025 30.9997) rotate(90) scale(29.9949 1.49975)">
<stop stop-color="#FFD600"/>
<stop offset="0.4375" stop-color="#FFF5A7" stop-opacity="0.5625"/>
<stop offset="1" stop-color="#FFF73F" stop-opacity="0"/>
</radialGradient>
<radialGradient id="paint30_radial_554_39839" cx="0" cy="0" r="1" gradientUnits="userSpaceOnUse" gradientTransform="translate(31.0025 30.9998) rotate(90) scale(29.9949 1.49975)">
<stop stop-color="#FFD600"/>
<stop offset="0.4375" stop-color="#FFF5A7" stop-opacity="0.5625"/>
<stop offset="1" stop-color="#FFF73F" stop-opacity="0"/>
</radialGradient>
<radialGradient id="paint31_radial_554_39839" cx="0" cy="0" r="1" gradientUnits="userSpaceOnUse" gradientTransform="translate(31.0024 30.9998) rotate(90) scale(29.9949 1.49975)">
<stop stop-color="#FFD600"/>
<stop offset="0.4375" stop-color="#FFF5A7" stop-opacity="0.5625"/>
<stop offset="1" stop-color="#FFF73F" stop-opacity="0"/>
</radialGradient>
<radialGradient id="paint32_radial_554_39839" cx="0" cy="0" r="1" gradientUnits="userSpaceOnUse" gradientTransform="translate(31.0025 30.9999) rotate(90) scale(29.9949 1.49975)">
<stop stop-color="#FFD600"/>
<stop offset="0.4375" stop-color="#FFF5A7" stop-opacity="0.5625"/>
<stop offset="1" stop-color="#FFF73F" stop-opacity="0"/>
</radialGradient>
<radialGradient id="paint33_radial_554_39839" cx="0" cy="0" r="1" gradientUnits="userSpaceOnUse" gradientTransform="translate(31.6511 30.8823) scale(18.6206)">
<stop offset="0.1953" stop-color="#FFFF79"/>
<stop offset="0.4045" stop-color="#FFE642"/>
<stop offset="0.5501" stop-color="#FFD621"/>
<stop offset="0.6363" stop-color="#FFC618"/>
<stop offset="0.8233" stop-color="#FFA707"/>
<stop offset="0.9286" stop-color="#FF9C00"/>
</radialGradient>
<radialGradient id="paint34_radial_554_39839" cx="0" cy="0" r="1" gradientUnits="userSpaceOnUse" gradientTransform="translate(31.6262 30.1186) scale(19.0686 19.0686)">
<stop offset="0.1953" stop-color="#FFFF79"/>
<stop offset="0.4045" stop-color="#FFE642"/>
<stop offset="0.5501" stop-color="#FFD621"/>
<stop offset="0.6363" stop-color="#FFC618"/>
<stop offset="0.8233" stop-color="#FFA707"/>
<stop offset="0.9286" stop-color="#FF9C00"/>
</radialGradient>
<radialGradient id="paint35_radial_554_39839" cx="0" cy="0" r="1" gradientUnits="userSpaceOnUse" gradientTransform="translate(31.6016 29.3708) scale(19.5208)">
<stop offset="0.1953" stop-color="#FFFF79"/>
<stop offset="0.4045" stop-color="#FFE642"/>
<stop offset="0.5501" stop-color="#FFD621"/>
<stop offset="0.6363" stop-color="#FFC618"/>
<stop offset="0.8233" stop-color="#FFA707"/>
<stop offset="0.9286" stop-color="#FF9C00"/>
</radialGradient>
<radialGradient id="paint36_radial_554_39839" cx="0" cy="0" r="1" gradientUnits="userSpaceOnUse" gradientTransform="translate(31.5786 28.6388) scale(19.9757 19.9757)">
<stop offset="0.1953" stop-color="#FFFF79"/>
<stop offset="0.4045" stop-color="#FFE642"/>
<stop offset="0.5501" stop-color="#FFD621"/>
<stop offset="0.6363" stop-color="#FFC618"/>
<stop offset="0.8233" stop-color="#FFA707"/>
<stop offset="0.9286" stop-color="#FF9C00"/>
</radialGradient>
<radialGradient id="paint37_radial_554_39839" cx="0" cy="0" r="1" gradientUnits="userSpaceOnUse" gradientTransform="translate(31.5552 27.9224) scale(20.4327 20.4327)">
<stop offset="0.1953" stop-color="#FFFF79"/>
<stop offset="0.4045" stop-color="#FFE642"/>
<stop offset="0.5501" stop-color="#FFD621"/>
<stop offset="0.6363" stop-color="#FFC618"/>
<stop offset="0.8233" stop-color="#FFA707"/>
<stop offset="0.9286" stop-color="#FF9C00"/>
</radialGradient>
<radialGradient id="paint38_radial_554_39839" cx="0" cy="0" r="1" gradientUnits="userSpaceOnUse" gradientTransform="translate(31.5328 27.2214) scale(20.891 20.891)">
<stop offset="0.1953" stop-color="#FFFF79"/>
<stop offset="0.4045" stop-color="#FFE642"/>
<stop offset="0.5501" stop-color="#FFD621"/>
<stop offset="0.6363" stop-color="#FFC618"/>
<stop offset="0.8233" stop-color="#FFA707"/>
<stop offset="0.9286" stop-color="#FF9C00"/>
</radialGradient>
<radialGradient id="paint39_radial_554_39839" cx="0" cy="0" r="1" gradientUnits="userSpaceOnUse" gradientTransform="translate(31.5095 26.5362) scale(21.35 21.35)">
<stop offset="0.1953" stop-color="#FFFF79"/>
<stop offset="0.4045" stop-color="#FFE642"/>
<stop offset="0.5501" stop-color="#FFD621"/>
<stop offset="0.6363" stop-color="#FFC618"/>
<stop offset="0.8233" stop-color="#FFA707"/>
<stop offset="0.9286" stop-color="#FF9C00"/>
</radialGradient>
<radialGradient id="paint40_radial_554_39839" cx="0" cy="0" r="1" gradientUnits="userSpaceOnUse" gradientTransform="translate(31.488 25.8666) scale(21.8094 21.8094)">
<stop offset="0.1953" stop-color="#FFFF79"/>
<stop offset="0.4045" stop-color="#FFE642"/>
<stop offset="0.5501" stop-color="#FFD621"/>
<stop offset="0.6363" stop-color="#FFC618"/>
<stop offset="0.8233" stop-color="#FFA707"/>
<stop offset="0.9286" stop-color="#FF9C00"/>
</radialGradient>
<radialGradient id="paint41_radial_554_39839" cx="0" cy="0" r="1" gradientUnits="userSpaceOnUse" gradientTransform="translate(31.4676 25.2129) scale(22.2685)">
<stop offset="0.1953" stop-color="#FFFF79"/>
<stop offset="0.4045" stop-color="#FFE642"/>
<stop offset="0.5501" stop-color="#FFD621"/>
<stop offset="0.6363" stop-color="#FFC618"/>
<stop offset="0.8233" stop-color="#FFA707"/>
<stop offset="0.9286" stop-color="#FF9C00"/>
</radialGradient>
<radialGradient id="paint42_radial_554_39839" cx="0" cy="0" r="1" gradientUnits="userSpaceOnUse" gradientTransform="translate(31.4473 24.5747) scale(22.7263 22.7263)">
<stop offset="0.1953" stop-color="#FFFF79"/>
<stop offset="0.4045" stop-color="#FFE642"/>
<stop offset="0.5501" stop-color="#FFD621"/>
<stop offset="0.6363" stop-color="#FFC618"/>
<stop offset="0.8233" stop-color="#FFA707"/>
<stop offset="0.9286" stop-color="#FF9C00"/>
</radialGradient>
<radialGradient id="paint43_radial_554_39839" cx="0" cy="0" r="1" gradientUnits="userSpaceOnUse" gradientTransform="translate(31.426 23.9523) scale(23.1825)">
<stop offset="0.1953" stop-color="#FFFF79"/>
<stop offset="0.4045" stop-color="#FFE642"/>
<stop offset="0.5501" stop-color="#FFD621"/>
<stop offset="0.6363" stop-color="#FFC618"/>
<stop offset="0.8233" stop-color="#FFA707"/>
<stop offset="0.9286" stop-color="#FF9C00"/>
</radialGradient>
<radialGradient id="paint44_radial_554_39839" cx="0" cy="0" r="1" gradientUnits="userSpaceOnUse" gradientTransform="translate(31.4073 23.3454) scale(23.6362)">
<stop offset="0.1953" stop-color="#FFFF79"/>
<stop offset="0.4045" stop-color="#FFE642"/>
<stop offset="0.5501" stop-color="#FFD621"/>
<stop offset="0.6363" stop-color="#FFC618"/>
<stop offset="0.8233" stop-color="#FFA707"/>
<stop offset="0.9286" stop-color="#FF9C00"/>
</radialGradient>
<radialGradient id="paint45_radial_554_39839" cx="0" cy="0" r="1" gradientUnits="userSpaceOnUse" gradientTransform="translate(31.3887 22.7544) scale(24.0871)">
<stop offset="0.1953" stop-color="#FFFF79"/>
<stop offset="0.4045" stop-color="#FFE642"/>
<stop offset="0.5501" stop-color="#FFD621"/>
<stop offset="0.6363" stop-color="#FFC618"/>
<stop offset="0.8233" stop-color="#FFA707"/>
<stop offset="0.9286" stop-color="#FF9C00"/>
</radialGradient>
<radialGradient id="paint46_radial_554_39839" cx="0" cy="0" r="1" gradientUnits="userSpaceOnUse" gradientTransform="translate(31.3695 22.1789) scale(24.5348)">
<stop offset="0.1953" stop-color="#FFFF79"/>
<stop offset="0.4045" stop-color="#FFE642"/>
<stop offset="0.5501" stop-color="#FFD621"/>
<stop offset="0.6363" stop-color="#FFC618"/>
<stop offset="0.8233" stop-color="#FFA707"/>
<stop offset="0.9286" stop-color="#FF9C00"/>
</radialGradient>
<radialGradient id="paint47_radial_554_39839" cx="0" cy="0" r="1" gradientUnits="userSpaceOnUse" gradientTransform="translate(31.3519 21.6188) scale(24.9783)">
<stop offset="0.1953" stop-color="#FFFF79"/>
<stop offset="0.4045" stop-color="#FFE642"/>
<stop offset="0.5501" stop-color="#FFD621"/>
<stop offset="0.6363" stop-color="#FFC618"/>
<stop offset="0.8233" stop-color="#FFA707"/>
<stop offset="0.9286" stop-color="#FF9C00"/>
</radialGradient>
<radialGradient id="paint48_radial_554_39839" cx="0" cy="0" r="1" gradientUnits="userSpaceOnUse" gradientTransform="translate(31.334 21.0747) scale(25.4174 25.4174)">
<stop offset="0.1953" stop-color="#FFFF79"/>
<stop offset="0.4045" stop-color="#FFE642"/>
<stop offset="0.5501" stop-color="#FFD621"/>
<stop offset="0.6363" stop-color="#FFC618"/>
<stop offset="0.8233" stop-color="#FFA707"/>
<stop offset="0.9286" stop-color="#FF9C00"/>
</radialGradient>
<radialGradient id="paint49_radial_554_39839" cx="0" cy="0" r="1" gradientUnits="userSpaceOnUse" gradientTransform="translate(31.3169 20.5464) scale(25.8512 25.8512)">
<stop offset="0.1953" stop-color="#FFFF79"/>
<stop offset="0.4045" stop-color="#FFE642"/>
<stop offset="0.5501" stop-color="#FFD621"/>
<stop offset="0.6363" stop-color="#FFC618"/>
<stop offset="0.8233" stop-color="#FFA707"/>
<stop offset="0.9286" stop-color="#FF9C00"/>
</radialGradient>
<radialGradient id="paint50_radial_554_39839" cx="0" cy="0" r="1" gradientUnits="userSpaceOnUse" gradientTransform="translate(31.3007 20.0336) scale(26.2797)">
<stop offset="0.1953" stop-color="#FFFF79"/>
<stop offset="0.4045" stop-color="#FFE642"/>
<stop offset="0.5501" stop-color="#FFD621"/>
<stop offset="0.6363" stop-color="#FFC618"/>
<stop offset="0.8233" stop-color="#FFA707"/>
<stop offset="0.9286" stop-color="#FF9C00"/>
</radialGradient>
<radialGradient id="paint51_radial_554_39839" cx="0" cy="0" r="1" gradientUnits="userSpaceOnUse" gradientTransform="translate(31.284 19.5362) scale(26.7021 26.702)">
<stop offset="0.1953" stop-color="#FFFF79"/>
<stop offset="0.4045" stop-color="#FFE642"/>
<stop offset="0.5501" stop-color="#FFD621"/>
<stop offset="0.6363" stop-color="#FFC618"/>
<stop offset="0.8233" stop-color="#FFA707"/>
<stop offset="0.9286" stop-color="#FF9C00"/>
</radialGradient>
<radialGradient id="paint52_radial_554_39839" cx="0" cy="0" r="1" gradientUnits="userSpaceOnUse" gradientTransform="translate(31.2685 19.0548) scale(27.1175)">
<stop offset="0.1953" stop-color="#FFFF79"/>
<stop offset="0.4045" stop-color="#FFE642"/>
<stop offset="0.5501" stop-color="#FFD621"/>
<stop offset="0.6363" stop-color="#FFC618"/>
<stop offset="0.8233" stop-color="#FFA707"/>
<stop offset="0.9286" stop-color="#FF9C00"/>
</radialGradient>
<radialGradient id="paint53_radial_554_39839" cx="0" cy="0" r="1" gradientUnits="userSpaceOnUse" gradientTransform="translate(31.2542 18.5889) scale(27.526)">
<stop offset="0.1953" stop-color="#FFFF79"/>
<stop offset="0.4045" stop-color="#FFE642"/>
<stop offset="0.5501" stop-color="#FFD621"/>
<stop offset="0.6363" stop-color="#FFC618"/>
<stop offset="0.8233" stop-color="#FFA707"/>
<stop offset="0.9286" stop-color="#FF9C00"/>
</radialGradient>
</defs>
</svg>
